<?xml version="1.0" encoding="UTF-8"?>
<svg version="1.1" viewBox="0 0 2048 1024" width="1280" height="1280" xmlns="http://www.w3.org/2000/svg">
<path transform="translate(39,353)" d="m0 0h72l17 4 15 8 11 9 11 14 7 15 3 15v41l-3 16-9 13-13 13 1 4 11 9 9 10 5 10 4 13 1 5v43l-3 15-5 13-4 8-8 10-10 9-21 10-10 3-8 1-19 1h-72l-4-2-1-2-1-102v-114l1-85 2-5zm34 55-1 1-1 50 1 21 2 1 18-1 13-3 7-6 3-10 1-7v-14l-4-22-3-7-6-2-9-1zm0 123-2 3 1 71 1 6h16l11-2 10-5 7-8 3-10v-25l-2-13-4-10-4-5-2-1-14-1z" fill="#079550"/>
<path transform="translate(537,433)" d="m0 0h40l75 3 2 5v31l-4 4-15 4v60l-1 16-4 12-10 16-15 15-8 4-24 7-11 2h-29l-1 1v10l3 10 7 4 12 1 48 1 21 5 8 6 7 8 5 9 1 3v63l-3 2h-51l-3-3v-16l-2-12-3-10-3-3-8-1-43-2-18-2-7-3-7-6-9-12-5-11-1-4v-37l2-8 6-11 1-3v-12l-4-9-5-12-2-18v-26l2-26 4-13 10-16 10-11 14-9 12-5zm11 47-6 4-6 12-1 10v22l2 19 4 8 5 4 10 2 11-4 6-5 1-3 1-12v-39l-3-12-3-4-8-2z" fill="#079550"/>
<path transform="translate(874,352)" d="m0 0h35l19 1 2 2 1 106v147l-2 10-5 13-7 11-11 12-14 8-17 5-15 3h-15l-20-4-12-5-11-7-11-11-8-12-4-9-1-5-1-18v-87l1-27 2-11 7-14 8-10 9-8 15-8 12-3h25l16 4 2 1-1-4v-76zm-29 127-6 3-7 14-1 33v60l2 13 4 8 8 6 10 3 9-3 6-4 3-8 1-8v-100l-4-11-6-5-4-1z" fill="#020515"/>
<path transform="translate(1295,348)" d="m0 0h23l16 3 12 5 11 7 10 9 7 9 6 12 5 17 3 21v15l-1 2-4 1-13 1h-34l-4-2-1-6v-21l-4-10-7-6-6-3-9-1-7 2-5 4h-2l-2 4-5 12v16l4 11 7 9 7 7 9 7 10 8 14 11 11 9 13 12 10 11 10 16 8 18 4 16 2 18-2 17-5 12-7 12-10 12-8 7-12 8-13 4-24 3h-15l-14-2-12-4-11-6-10-9-8-9-8-16-4-13-1-6v-30l3-5 43-1 4 2 2 6 1 13 4 13 6 10 10 5h13l10-4 6-7 3-6 1-5v-11l-5-15-7-9-6-7-8-7-10-9-28-22-16-15-8-10-9-14-7-16-3-16v-22l3-17 7-16 7-9 9-10 13-10 15-7z" fill="#020515"/>
<path transform="translate(375,431)" d="m0 0 24 1 17 4 13 7 11 9 10 13 7 14 3 15 1 33v29l-1 48-2 15-6 14-8 11-9 9-17 9-16 4-14 2h-15l-19-3-13-5-11-7-10-9-7-10-6-13-1-5-1-15v-95l1-20 4-13 9-14 10-11 18-11 13-4zm0 49-6 4-4 5-2 4-1 8v95l3 14 4 5 13 4 9-2 8-5 1-2 1-84v-30l-2-9-4-5-8-2z" fill="#079550"/>
<path transform="translate(1013,430)" d="m0 0h24l14 3 16 7 12 9 9 9 9 14 5 12 2 10 1 12v99l-3 12-8 16-7 11-5 6-20 12-15 3-16 2h-18l-15-2-13-5-11-8-13-13-8-14-2-7-2-21v-97l2-17 3-10 7-11 9-11 14-10 17-8zm7 50-6 3-8 11-1 7-1 32v60l2 14 3 6 6 4 7 2h8l10-3 4-3 1-3v-111l-2-12-5-5-7-2z" fill="#020515"/>
<path transform="translate(1654,430)" d="m0 0h14l17 2 15 5 14 8 11 10 8 13 5 11 2 17v166l-3 2h-49l-3-5-1-8-1-155-3-10-4-5-7-2h-11l-9 3-4 8-1 4-1 56-1 111-3 3h-50l-2-2v-172l2-9 7-14 8-11 5-6 13-10 15-7z" fill="#020515"/>
<path transform="translate(1951,430)" d="m0 0h17l17 3 15 6 14 10 9 10 9 15 4 11 2 13v105l-2 16-8 16-11 13-9 7-14 7-17 4-8 1h-24l-18-4-16-8-10-8-8-10-7-14-2-8-1-13v-12l2-21 5-14 8-10 8-8 16-8 8-3 14-2 33-3 4-2v-10l-4-17-5-10-9-5-5-1-16 1-17 4-10 5-7 4-3-1-6-10-6-13-1-3v-8l4-5 15-9 17-7 14-3zm10 132-10 4-7 6-6 11-1 4v11l5 12 4 5 10 5h8l9-4 6-8 2-9v-31l-5-5-4-1z" fill="#020515"/>
<path transform="translate(1479,430)" d="m0 0h15l14 2 15 5 10 6 10 9 7 8 8 14 4 12 1 8 1 23v84l-2 14-6 16-7 11-5 6-9 6-10 6-16 5-14 2h-24l-15-3-10-4-11-8-10-9-7-10-5-10-4-16v-25l4-19 4-8 9-11 9-8 15-8 12-3 20-2 24-2 1-10-2-14-4-11-7-6-6-3-5-1h-9l-21 4-9 4-9 5-5-1-4-6-9-23-1-6 9-6 15-8 13-5 15-3zm11 132-10 3-6 4-7 9-4 11 2 14 4 8 8 7 7 2 8-1 8-4 5-5 2-9 1-15-1-16-3-7-5-1z" fill="#020515"/>
<path transform="translate(201,353)" d="m0 0h51l3 2 1 231 1 16 2 5 4 3 20 5 4 3 1 3v27l-2 12-2 3-3 1h-34l-13-3-14-7-9-9-6-10-5-17-2-14-1-47v-167l1-31 2-5z" fill="#079550"/>
<path transform="translate(1823,379)" d="m0 0h7l2 1 1 5-1 48 28 1 2 4v40l-6 3-18 2h-5v114l2 12 9 3 17 3 3 2v26l-1 17-1 3-2 1h-31l-14-3-9-4-10-6-8-8-6-11-4-20-1-10-1-118-16-2-2-2-1-13v-27l3-3 14-6h2l1-33 3-6 6-3 15-4 17-5z" fill="#020515"/>
<path transform="translate(1951,430)" d="m0 0h17l17 3 15 6 14 10 9 10 9 15 3 7v3l-3-1-4-4-7-4-4-5-3-12-2-4-5-2h-9l-7 1 2 5v3l3 1 1 13v7l-3 15-10 22h-2l-2-16-5-16-3-5-9-5-5-1-16 1-17 4-10 5-7 4-3-1-6-10-6-13-1-3v-8l4-5 15-9 17-7 14-3z" fill="#000103"/>
<path transform="translate(1275,354)" d="m0 0 2 1-4 3-2 6-5 5-9 10-8 10-3 7v8l1 5 1 22 3 14 2 10 6 25 3 6 8 10 11 9 10 5 7 3 11 8 15 14 5 6 7 14 5 11 2 8 1 16v7l-2 8h2l-3 9-4 6-3 3h-2l-2 4-4 1v2h-6l-6-3-8-6-2-4 10-1 12-6 5-6 3-6 1-5v-11l-5-15-7-9-6-7-8-7-10-9-28-22-16-15-8-10-9-14-7-16-3-16v-22l3-17 7-16 7-9 9-10 13-10z" fill="#000103"/>
<path transform="translate(1479,430)" d="m0 0h15l14 2 15 5 10 6 10 9 7 8-1 2-12-10-7-3-21-3h-26l-12 5-4 2-1 7 5 5 9 4 15 4 13 2 3 3 1 8v29l-3 3h-1l-3-21-4-11-7-6-6-3-5-1h-9l-21 4-9 4-9 5-5-1-4-6-9-23-1-6 9-6 15-8 13-5 15-3z" fill="#000103"/>
<path transform="translate(1654,430)" d="m0 0h14l17 2 15 5 14 8 11 10 8 13 4 9-1 4-3-2-2-4-7-6-15-10-10-4-13-1-3-2h-13l-23 5-6 3-4 8h2v2l-9 1h-6l-7 2-9 1-4 2-3-1v2h-9l1-5 10-15 6-7 13-10 15-7z" fill="#000103"/>
<path transform="translate(926,423)" d="m0 0h1l1 13 1 22 2 3v147l-2 10-5 13-7 11-11 12-14 8-17 5-15 3h-15l-20-4-12-5-11-7-11-11-8-12-4-9-1-5v-8l1 2h2v2l3 1 6 12 4 7 4 5v2l4 2 5 4 2 4 5 4 10 3v2h3v2l3-1 11 4 11 1h13l16-4 9-6 3-5 5-4 9-11 3-4h2l2-4 5-8 3-16 1-17-1-95 1-59z" fill="#121926"/>
<path transform="translate(1687,469)" d="m0 0 2 1 1 10-1 9v36l-3 73-1 6h-1l-1-108-3-10-4-5-7-2h-11l-9 3-4 8-1 4-1 56-1 111-3 3h-10l4-4 2-1 1-13v-158l-1-8 2-6 6-3h16v1l18-1z" fill="#000104"/>
<path transform="translate(1823,379)" d="m0 0h7l2 1 1 5-1 48 28 1 2 4v40l-6 3-6 1h-15l3-2 10-5 4-6v-10l3-19-12-2-14-1-2-3-1-6v-14l-2-6-1-6 1-3-3-6-2-1h-20l-5 2-3 5-2 22-3 16-5 4-19 5h-4v-8l16-7h2l1-33 3-6 6-3 15-4 17-5z" fill="#010104"/>
<path transform="translate(1273,566)" d="m0 0 6 2 2 6 1 13 4 13v2l-5-1-6-5-17-9-3-3-6-4v-2l-6-1 3 3-2 3-3 17-1 1v24l4 9 5 5 13 12 10 7 3 3-6-1-12-7-13-13-8-14-6-18-1-6v-30l3-5z" fill="#000204"/>
<path transform="translate(1095,480)" d="m0 0 3 4 3 5 2-1 2 18v99l-3 12-8 16-7 11-5 6-20 12-8 2h-5l3-2 11-5 9-4 6-4 1-2h2l2-5 4-6h2l2-5 3-7z" fill="#111723"/>
<path transform="translate(1046,490)" d="m0 0 7 3 1 6v100l-2 10-4 9-3 3h-9l-6-2 4-2 9-4 1-3v-118z" fill="#121725"/>
<path transform="translate(1294,389)" d="m0 0 12 2 9 8v2h-10l-7 2-5 4h-2l-2 4-5 12v16l4 11 4 6-1 2-13-11-12-14 1-7 10-20 9-10 3-5z" fill="#000103"/>
<path transform="translate(1758,468)" d="m0 0 5 5 8 4 1 2 7 2 3 7v70l-1 54-2 2-1-2-1-10-1-118-16-2-2-2z" fill="#030408"/>
<path transform="translate(831,431)" d="m0 0h25l10 2 1 2-44 11-16 6-17 8v-4l9-10 10-7 13-6z" fill="#010104"/>
<path transform="translate(955,627)" d="m0 0 11 4 1-3 3 3 4 2v2h2l1 4 3 1 2 6 8 2 3 2v2h2v2l5 2 11 7 4 2 16 1v1h-18l-15-2-13-5-11-8-13-13-6-10z" fill="#121926"/>
<path transform="translate(1295,348)" d="m0 0h23l16 3 12 5 11 7 10 9 7 9 6 12 5 17 3 21v15l-4 1-2-16-3-16-1-11-7-18-7-12-10-9-10-6-12-5-15-3-24-1z" fill="#020408"/>
<path transform="translate(787,463)" d="m0 0h1v9l-6 67-3 41h-1v-95l2-11 4-9z" fill="#000003"/>
<path transform="translate(1927,527)" d="m0 0h5l-3 3-9 6-12 12-8 10-7 10-6 13-2 2v-14l5-14 8-10 8-8 16-8z" fill="#010205"/>
<path transform="translate(1832,482)" d="m0 0 2 1-1 61v53l2 12 11 4v1h-8l-8-2-1-1v-106l1-21z" fill="#020B0A"/>
<path transform="translate(1588,492)" d="m0 0h1l1 15 1 26 1 35-1 43-1 16-2 8h-1v-114z" fill="#000003"/>
<path transform="translate(1047,433)" d="m0 0 7 1 16 8 10 8 8 8 9 14 5 12v7l-4-5-5-12-10-12-8-7-9-8-19-13z" fill="#020306"/>
<path transform="translate(1330,371)" d="m0 0 10 1 7 6 3 5 6 2 6 3 3 7v8l-3 6-5-2-1-1v-9l-6-11-10-2-6-3-5-5z" fill="#000002"/>
<path transform="translate(920,354)" d="m0 0h9v74h-1l-1-15-2-10-3-24v-12l1-2h-2l-2-8z" fill="#000002"/>
<path transform="translate(831,589)" d="m0 0h1l2 13 4 8 9 6 8 2 9-3 6-4 2-3 2 2-1 7-12 7-4 1h-9l-7-4-5-5-6-9-2-7v-7l2 1z" fill="#121825"/>
<path transform="translate(1330,413)" d="m0 0 5 2 9 8v4h-2l-2 7v9l3 4 3 2h-13l-2-3v-25z" fill="#010205"/>
<path transform="translate(1482,523)" d="m0 0h17v2l-10 1-12 3-12 2-15 3-13 5-2-1 5-5 13-6 16-3z" fill="#020407"/>
<path transform="translate(1356,512)" d="m0 0 4 2 9 10 10 16 8 18 4 16v10l-2-1-5-17-4-15-8-16-7-10-9-11z" fill="#030609"/>
<path transform="translate(2031,625)" d="m0 0 1 3-7 11-11 12-15 9-5 2h-5l5-4 11-8 13-11 7-8z" fill="#020508"/>
<path transform="translate(830,520)" d="m0 0h1v75l-2-1-2-20v-30l2-18z" fill="#000005"/>
<path transform="translate(1419,555)" d="m0 0 1 2-2 7-2 9-1 4-2 16v10l-1 10-2-1-1-5v-25l4-19 3-6z" fill="#020507"/>
<path transform="translate(1e3 433)" d="m0 0h5l-4 3-15 9-11 8-10 9-5 5h-2l2-5 9-11 14-10z" fill="#020307"/>
<path transform="translate(929,355)" d="m0 0h1v150h-1l-1-47-1-27v-3h2z" fill="#050917"/>
<path transform="translate(1465,605)" d="m0 0 4 4 5 6 6 3 9 1 4 1-6 4-3 1h-8l-5-3-6-8-1-8z" fill="#010306"/>
<path transform="translate(1350,429)" d="m0 0 5 1 3 3 3 9 7 3 8 3v1h-28l4-2 2-2v-6l-4-6z" fill="#000002"/>
<path transform="translate(1335,496)" d="m0 0 7 4 10 9 7 7 7 9v3l-5-2-11-12-7-7-5-4-4-6z" fill="#121725"/>
<path transform="translate(1980,520)" d="m0 0h2l-2 4-8 3-4 1h-21l-6-1 3-3 33-3z" fill="#020408"/>
<path transform="translate(2036,604)" d="m0 0h1v9l-2 9-3 4-7 6-6 6-2-1 6-10 6-9z" fill="#121B26"/>
<path transform="translate(1557,478)" d="m0 0 3 1 2 7 1 8v33l-2-4-4-35z" fill="#010206"/>
<path transform="translate(1240,631)" d="m0 0h2l4 6 8 7 13 11 8 5-4 1-11-6-10-9-8-9z" fill="#020407"/>
<path transform="translate(1289,349)" d="m0 0 28 1 12 3v2l-19-3h-13l-12 3-13 5 2-4 5-4z" fill="#121725"/>
<path transform="translate(1375,634)" d="m0 0 1 3-7 8-8 7-12 8-8 3h-8l3-2 10-4 16-10z" fill="#030609"/>
<path transform="translate(1305,470)" d="m0 0 4 1 13 11 13 10-1 2-5-2-1 2-8-7-4-4v-2h-2l-7-8z" fill="#020407"/>
<path transform="translate(1559,617)" d="m0 0 1 4-5 12-7 10-4 5-4 3-3-1 10-13 8-14z" fill="#020608"/>
<path transform="translate(1937,602)" d="m0 0 4 4 5 8 10 5v2l-2 1h-6l-6-6-6-3v-8z" fill="#010206"/>
<path transform="translate(874,352)" d="m0 0h35l-1 2-16 1-14 2-4 1v9h-1v-11z" fill="#11262A"/>
<path transform="translate(1860,616)" d="m0 0 4 1v26l-1 5-2-2-1-25-1-4z" fill="#020408"/>
<path transform="translate(1959,560)" d="m0 0 2 1v2l-10 4-8 6v-6l4-5 11-1z" fill="#020709"/>
<path transform="translate(1072,653)" d="m0 0m-2 1h2l-1 3-12 6-10 1 3-2 11-5z" fill="#102F2D"/>
<path transform="translate(2034,583)" d="m0 0h3v17l-5 1 1-7z" fill="#000002"/>
<path transform="translate(1e3 491)" d="m0 0h5l-4 21h-1l-1-16z" fill="#020508"/>
<path transform="translate(1011,481)" d="m0 0h2l1 3-5 7h-4v-5z" fill="#2A554A"/>
<path transform="translate(1310,350)" d="m0 0 13 1 6 2v2l-19-3z" fill="#131826"/>
<path transform="translate(1342,498)" d="m0 0 7 6 8 7-2 2-10-10-3-2z" fill="#060915"/>
<path transform="translate(2029,482)" d="m0 0 3 1 3 5v4h-2l-3-4z" fill="#131826"/>
<path transform="translate(1315,349)" d="m0 0h10l3 1v3l-13-3z" fill="#02040B"/>
<path transform="translate(1687,660)" d="m0 0 17 2v1h-17z" fill="#000003"/>
<path transform="translate(1356,512)" d="m0 0 4 2 5 6-3 1-6-7z" fill="#04060D"/>
</svg>
