<svg xmlns="http://www.w3.org/2000/svg" xmlns:xlink="http://www.w3.org/1999/xlink" width="500" zoomAndPan="magnify" viewBox="0 0 375 374.999991" height="500" preserveAspectRatio="xMidYMid meet" version="1.0"><defs><clipPath id="37df2d4276"><path d="M 28.785156 28.785156 L 347.535156 28.785156 L 347.535156 347.535156 L 28.785156 347.535156 Z M 28.785156 28.785156 " clip-rule="nonzero"/></clipPath><clipPath id="7bf87f05fd"><path d="M 167 149 L 316 149 L 316 317.878906 L 167 317.878906 Z M 167 149 " clip-rule="nonzero"/></clipPath><clipPath id="cd29fe47b9"><path d="M 57.453125 56.878906 L 192 56.878906 L 192 208 L 57.453125 208 Z M 57.453125 56.878906 " clip-rule="nonzero"/></clipPath><clipPath id="f6406e149c"><path d="M 185 168 L 318.453125 168 L 318.453125 317.878906 L 185 317.878906 Z M 185 168 " clip-rule="nonzero"/></clipPath><clipPath id="83fe3e7c01"><path d="M 57.453125 58 L 171 58 L 171 187 L 57.453125 187 Z M 57.453125 58 " clip-rule="nonzero"/></clipPath><clipPath id="83ea4d91c3"><path d="M 205 188 L 318.453125 188 L 318.453125 317 L 205 317 Z M 205 188 " clip-rule="nonzero"/></clipPath><clipPath id="5c366c6657"><path d="M 146 100.957031 L 209 100.957031 L 209 173 L 146 173 Z M 146 100.957031 " clip-rule="nonzero"/></clipPath><clipPath id="ed0eb60d63"><path d="M 116.855469 152 L 259.355469 152 L 259.355469 274.957031 L 116.855469 274.957031 Z M 116.855469 152 " clip-rule="nonzero"/></clipPath><clipPath id="c1dc924f7d"><path d="M 116.855469 100.957031 L 138 100.957031 L 138 122 L 116.855469 122 Z M 116.855469 100.957031 " clip-rule="nonzero"/></clipPath></defs><g clip-path="url(#37df2d4276)"><path fill="#000000" d="M 188.070312 28.785156 C 100.207031 28.785156 28.785156 100.273438 28.785156 188.070312 C 28.785156 275.933594 100.207031 347.359375 188.070312 347.359375 C 275.871094 347.359375 347.359375 275.933594 347.359375 188.070312 C 347.359375 100.273438 275.871094 28.785156 188.070312 28.785156 Z M 188.070312 334.933594 C 107.089844 334.933594 41.207031 269.054688 41.207031 188.070312 C 41.207031 107.089844 107.089844 41.207031 188.070312 41.207031 C 269.054688 41.207031 334.933594 107.089844 334.933594 188.070312 C 334.933594 269.054688 269.054688 334.933594 188.070312 334.933594 Z M 188.070312 334.933594 " fill-opacity="1" fill-rule="nonzero"/></g><path fill="#000000" d="M 188.070312 49.492188 C 111.675781 49.492188 49.492188 111.675781 49.492188 188.070312 C 49.492188 264.464844 111.675781 326.652344 188.070312 326.652344 C 264.464844 326.652344 326.652344 264.464844 326.652344 188.070312 C 326.652344 111.675781 264.464844 49.492188 188.070312 49.492188 Z M 188.070312 49.492188 " fill-opacity="1" fill-rule="nonzero"/><path fill="#16a34a" d="M 99.308594 283.300781 L 103.945312 287.367188 C 104.28125 287.675781 104.222656 287.785156 104.683594 287.910156 C 105.1875 287.570312 105.660156 286.933594 106.054688 286.464844 L 112.726562 278.800781 C 112.960938 278.511719 113.171875 278.363281 113.40625 278.074219 L 114.699219 276.546875 C 115.027344 276.195312 115.113281 276.109375 115.414062 275.730469 L 132.234375 256.582031 C 132.558594 256.253906 132.597656 256.15625 132.878906 255.820312 L 134.921875 253.511719 C 135.25 253.179688 135.285156 253.085938 135.566406 252.75 L 148.367188 238.15625 C 149.25 237.109375 150.230469 236.1875 151.070312 235.101562 C 152.105469 233.761719 153.34375 232.59375 154.433594 231.296875 C 154.71875 230.960938 154.753906 230.863281 155.082031 230.535156 L 159.15625 225.90625 C 159.449219 225.523438 159.511719 225.488281 159.816406 225.160156 L 167.882812 215.945312 C 169.632812 214.183594 171.503906 211.597656 173.253906 209.800781 L 180.035156 202.117188 C 180.316406 201.777344 180.351562 201.683594 180.679688 201.355469 C 182.433594 199.59375 184.304688 197.003906 186.054688 195.207031 C 186.378906 194.875 186.425781 194.808594 186.707031 194.453125 C 186.941406 194.164062 187.152344 194.015625 187.386719 193.722656 C 188.652344 192.144531 191.082031 189.667969 192.101562 188.328125 C 193.316406 186.738281 195.367188 184.636719 196.75 182.992188 L 207.535156 170.742188 C 207.832031 170.359375 207.894531 170.324219 208.199219 169.996094 C 208.492188 169.683594 208.527344 169.542969 208.835938 169.226562 C 209.179688 168.875 209.242188 168.765625 209.546875 168.402344 L 215.617188 161.542969 C 215.898438 161.203125 215.933594 161.109375 216.261719 160.78125 L 217.628906 159.203125 C 217.882812 158.871094 218.050781 158.769531 218.304688 158.46875 L 219.601562 156.953125 C 220.683594 155.601562 221.964844 154.445312 223.023438 153.078125 L 224.324219 151.5625 C 224.648438 151.230469 224.695312 151.164062 224.976562 150.808594 C 225.226562 150.496094 225.464844 150.332031 225.726562 150.023438 C 226.011719 149.683594 226.046875 149.589844 226.375 149.261719 C 226.695312 148.9375 226.734375 148.808594 227.015625 148.492188 L 236.484375 137.742188 C 237.414062 136.75 238.210938 135.632812 239.175781 134.671875 L 249.222656 123.214844 C 249.546875 122.882812 249.597656 122.710938 249.921875 122.378906 L 251.253906 120.894531 C 251.535156 120.542969 251.585938 120.476562 251.910156 120.144531 C 252.234375 119.808594 252.285156 119.640625 252.609375 119.308594 L 255.300781 116.238281 C 255.757812 115.722656 256.183594 115.28125 256.640625 114.765625 L 267.394531 102.476562 C 267.722656 102.148438 267.757812 102.054688 268.039062 101.714844 L 274.820312 94.03125 C 275.128906 93.714844 275.167969 93.574219 275.457031 93.261719 L 276.835938 91.695312 C 276.570312 91.296875 276.53125 91.355469 276.175781 91.074219 C 275.261719 90.351562 272.148438 87.175781 271.332031 86.960938 C 271.183594 87.511719 269.160156 89.527344 268.742188 90 C 267.222656 91.707031 264.109375 95.53125 262.726562 96.914062 C 262.40625 97.234375 262.351562 97.28125 262.0625 97.65625 C 261.804688 97.988281 261.640625 98.085938 261.386719 98.386719 L 259.375 100.726562 C 259.117188 101.058594 258.949219 101.160156 258.699219 101.460938 C 257.664062 102.691406 256.417969 104.234375 255.300781 105.359375 C 254.972656 105.6875 254.9375 105.78125 254.652344 106.121094 L 247.238281 114.574219 C 246.929688 114.902344 246.867188 114.9375 246.574219 115.320312 L 240.515625 122.1875 C 240.222656 122.5 240.1875 122.640625 239.878906 122.957031 L 236.480469 126.855469 C 235.605469 127.902344 234.613281 128.828125 233.773438 129.910156 C 233.519531 130.242188 233.351562 130.339844 233.097656 130.644531 L 217.613281 148.304688 C 216.703125 149.386719 215.875 150.347656 214.917969 151.371094 L 210.9375 155.964844 C 210.089844 157.027344 209.050781 157.945312 208.230469 159.019531 C 206.625 161.121094 204.460938 163.0625 202.855469 165.164062 C 202.601562 165.492188 202.480469 165.589844 202.179688 165.898438 L 188.027344 182.078125 C 186.347656 184.175781 184.351562 186.019531 182.707031 188.148438 C 181.867188 189.234375 180.839844 190.113281 179.996094 191.199219 C 179.15625 192.285156 178.152344 193.183594 177.308594 194.273438 L 176.011719 195.789062 C 175.710938 196.09375 175.585938 196.191406 175.335938 196.519531 C 174.296875 197.882812 173.019531 199.089844 171.917969 200.398438 L 162.554688 211.132812 C 162.324219 211.421875 162.113281 211.570312 161.867188 211.851562 L 159.847656 214.183594 C 159.597656 214.515625 159.453125 214.613281 159.179688 214.921875 L 150.410156 224.96875 C 150.085938 225.300781 150.039062 225.371094 149.757812 225.722656 L 136.957031 240.3125 C 136.109375 241.371094 135.074219 242.289062 134.25 243.367188 C 133.996094 243.695312 133.855469 243.792969 133.578125 244.105469 L 131.5625 246.4375 C 130.742188 247.507812 129.695312 248.4375 128.875 249.511719 L 125.511719 253.316406 C 123.792969 255.082031 121.886719 257.707031 120.140625 259.460938 C 119.8125 259.792969 119.777344 259.886719 119.492188 260.222656 C 118.40625 261.515625 117.164062 262.691406 116.128906 264.027344 L 113.425781 267.082031 C 113.117188 267.449219 113.054688 267.554688 112.714844 267.910156 L 105.355469 276.292969 C 103.589844 278.179688 101.773438 280.640625 99.980469 282.4375 C 99.628906 282.785156 99.566406 282.914062 99.308594 283.300781 Z M 99.308594 283.300781 " fill-opacity="1" fill-rule="evenodd"/><path fill="#16a34a" d="M 89.453125 272.933594 C 89.453125 273.269531 89.792969 273.453125 89.992188 273.671875 C 90.910156 274.679688 93.421875 277.710938 94.316406 278.308594 C 94.6875 277.605469 96.941406 275.109375 97.546875 274.5 C 97.875 274.171875 97.910156 274.078125 98.195312 273.738281 L 110.9375 259.21875 C 111.167969 258.929688 111.382812 258.78125 111.613281 258.488281 L 114.953125 254.660156 C 116.617188 252.992188 117.960938 251.019531 119.628906 249.351562 L 126.386719 241.648438 C 126.683594 241.269531 126.746094 241.230469 127.050781 240.902344 L 128.34375 239.378906 C 128.597656 239.058594 128.804688 238.925781 129.078125 238.578125 C 130.296875 237 132.628906 234.707031 133.738281 233.253906 C 134.777344 231.894531 136.054688 230.6875 137.15625 229.378906 C 138.027344 228.339844 138.851562 227.34375 139.789062 226.378906 C 140.09375 226.0625 140.132812 225.917969 140.425781 225.605469 L 147.847656 217.160156 C 148.175781 216.832031 148.210938 216.734375 148.496094 216.398438 L 154.503906 209.609375 C 154.78125 209.292969 154.824219 209.160156 155.144531 208.839844 C 155.484375 208.496094 155.550781 208.34375 155.851562 208.011719 C 156.308594 207.496094 156.734375 207.050781 157.191406 206.535156 L 172.617188 188.941406 C 172.9375 188.621094 172.980469 188.484375 173.257812 188.171875 C 175.523438 185.621094 177.710938 182.980469 180.039062 180.492188 L 186.671875 172.917969 C 187.507812 171.835938 188.527344 170.925781 189.359375 169.84375 L 192.710938 166.027344 C 193.03125 165.707031 193.074219 165.574219 193.351562 165.261719 L 200.070312 157.644531 C 200.378906 157.328125 200.417969 157.1875 200.710938 156.875 L 204.738281 152.324219 C 205.019531 151.992188 205.050781 151.890625 205.382812 151.5625 C 205.714844 151.234375 205.757812 151.15625 206.035156 150.808594 L 220.867188 133.898438 C 221.191406 133.566406 221.242188 133.496094 221.523438 133.144531 C 221.753906 132.855469 221.96875 132.707031 222.199219 132.414062 L 223.554688 130.828125 C 225.890625 128.429688 227.925781 125.722656 230.214844 123.277344 L 239.664062 112.503906 C 239.957031 112.121094 240.019531 112.085938 240.324219 111.757812 L 245.054688 106.375 C 246.421875 104.742188 248.515625 102.589844 249.699219 101.039062 C 249.953125 100.707031 250.09375 100.609375 250.371094 100.300781 C 252.210938 98.230469 254.609375 95.289062 256.386719 93.390625 C 258.714844 90.898438 260.902344 88.261719 263.171875 85.710938 C 263.957031 84.824219 265.210938 83.527344 265.828125 82.605469 C 265.355469 81.964844 260.332031 78.617188 259.941406 78.511719 C 259.320312 78.925781 256.554688 82.269531 255.941406 82.960938 C 255.664062 83.273438 255.621094 83.410156 255.300781 83.730469 C 254.949219 84.078125 254.886719 84.167969 254.582031 84.546875 L 249.988281 89.804688 C 248.648438 91.308594 247.359375 92.90625 245.953125 94.347656 C 244.78125 95.554688 243.777344 96.964844 242.628906 98.191406 L 240.644531 100.433594 C 239.695312 101.410156 238.90625 102.527344 237.957031 103.503906 L 236.625 104.988281 C 236.34375 105.339844 236.296875 105.40625 235.972656 105.742188 C 235.664062 106.058594 235.625 106.199219 235.335938 106.511719 L 231.964844 110.308594 C 231.144531 111.367188 230.164062 112.265625 229.332031 113.308594 C 227.339844 115.792969 224.789062 118.429688 222.65625 120.96875 L 221.316406 122.441406 C 220.996094 122.761719 220.953125 122.898438 220.675781 123.210938 L 216.648438 127.757812 C 216.367188 128.070312 216.324219 128.203125 216.007812 128.527344 C 215.679688 128.855469 215.644531 128.949219 215.359375 129.285156 C 215.105469 129.589844 214.941406 129.6875 214.683594 130.019531 C 214.394531 130.394531 214.339844 130.441406 214.019531 130.761719 C 212.847656 131.933594 211.796875 133.359375 210.691406 134.601562 L 198.726562 148.238281 C 198.421875 148.5625 198.359375 148.601562 198.066406 148.980469 C 197.808594 149.3125 197.640625 149.414062 197.386719 149.714844 C 197.105469 150.050781 197.070312 150.144531 196.742188 150.476562 C 196.40625 150.8125 196.347656 150.980469 196.039062 151.308594 C 195.734375 151.636719 195.671875 151.671875 195.375 152.054688 L 194.054688 153.546875 C 193.722656 153.875 193.679688 153.957031 193.402344 154.300781 C 193.167969 154.59375 192.957031 154.742188 192.722656 155.03125 L 188.082031 160.375 C 187.824219 160.707031 187.660156 160.804688 187.40625 161.105469 L 186.105469 162.621094 C 185.851562 162.941406 185.644531 163.074219 185.375 163.425781 L 179.398438 170.25 C 178.441406 171.214844 177.671875 172.359375 176.710938 173.324219 C 176.386719 173.652344 176.351562 173.746094 176.066406 174.085938 L 156.746094 196.105469 C 156.441406 196.433594 156.378906 196.46875 156.082031 196.851562 C 155.246094 197.933594 154.234375 198.839844 153.394531 199.921875 L 151.421875 202.171875 C 150.585938 203.214844 149.605469 204.113281 148.789062 205.171875 L 144.125 210.492188 C 143.890625 210.78125 143.679688 210.929688 143.445312 211.222656 L 136.773438 218.882812 C 135.683594 220.179688 134.445312 221.347656 133.40625 222.6875 C 132.566406 223.773438 131.585938 224.691406 130.703125 225.742188 C 130.421875 226.078125 130.382812 226.175781 130.058594 226.503906 C 129.738281 226.824219 129.695312 226.957031 129.417969 227.269531 L 125.382812 231.8125 C 125.078125 232.128906 125.039062 232.273438 124.746094 232.585938 L 113.425781 245.453125 C 110.597656 248.8125 107.597656 252.003906 104.773438 255.359375 L 99.453125 261.433594 C 98.210938 262.988281 96.199219 265.078125 94.789062 266.75 C 94.535156 267.054688 94.371094 267.152344 94.113281 267.484375 L 90.761719 271.300781 C 90.488281 271.578125 89.453125 272.628906 89.453125 272.933594 Z M 89.453125 272.933594 " fill-opacity="1" fill-rule="evenodd"/><path fill="#16a34a" d="M 110.441406 292.515625 C 112.425781 293.84375 114.335938 295.488281 116.457031 296.613281 C 116.765625 296.035156 117.273438 295.53125 117.707031 295.046875 L 122.378906 289.730469 C 122.683594 289.40625 122.746094 289.367188 123.039062 288.988281 L 131.011719 279.933594 C 131.296875 279.597656 131.332031 279.503906 131.660156 279.171875 L 159.050781 247.945312 C 159.996094 246.988281 160.722656 245.886719 161.671875 244.933594 L 163.660156 242.695312 C 164.875 241.484375 168.332031 237.304688 169.671875 235.785156 L 171.015625 234.3125 C 171.324219 233.996094 171.363281 233.855469 171.65625 233.542969 C 173.492188 231.578125 175.1875 229.480469 176.96875 227.464844 L 186.964844 216.085938 C 187.195312 215.792969 187.410156 215.644531 187.640625 215.355469 L 196.292969 205.449219 C 197.894531 203.804688 199.382812 201.730469 200.964844 200.136719 L 207.679688 192.515625 C 207.964844 192.179688 208 192.082031 208.328125 191.753906 C 208.644531 191.433594 208.6875 191.300781 208.96875 190.988281 L 212.34375 187.195312 C 214.4375 184.582031 216.867188 182.222656 218.960938 179.605469 L 225.605469 172.042969 C 226.554688 171.066406 227.339844 169.945312 228.292969 168.96875 C 228.617188 168.636719 228.664062 168.566406 228.945312 168.214844 L 230.277344 166.734375 C 230.585938 166.414062 230.625 166.273438 230.914062 165.960938 L 236.242188 159.894531 C 236.472656 159.605469 236.6875 159.457031 236.917969 159.167969 L 244.324219 150.699219 C 244.578125 150.371094 244.71875 150.273438 244.996094 149.960938 L 246.972656 147.71875 C 247.257812 147.378906 247.292969 147.285156 247.621094 146.957031 L 253.59375 140.128906 C 254.433594 139.046875 255.441406 138.144531 256.28125 137.058594 C 256.539062 136.726562 256.703125 136.628906 256.957031 136.328125 L 273.582031 117.367188 C 273.875 116.984375 273.9375 116.949219 274.242188 116.621094 C 274.535156 116.3125 274.574219 116.167969 274.882812 115.851562 L 276.269531 114.296875 C 276.5625 113.914062 276.625 113.878906 276.933594 113.550781 C 277.222656 113.238281 277.261719 113.097656 277.570312 112.78125 C 278.976562 111.335938 280.261719 109.746094 281.601562 108.238281 L 284.289062 105.164062 C 285.007812 104.359375 286.433594 102.824219 286.945312 102.0625 C 286.109375 101.503906 285.253906 100.164062 284.480469 99.40625 C 283.605469 98.546875 282.960938 97.488281 281.953125 96.816406 C 281.542969 97.429688 281.09375 97.800781 280.675781 98.351562 L 266.691406 114.320312 C 266.386719 114.648438 266.226562 114.765625 265.957031 115.117188 L 259.269531 122.765625 C 257 125.191406 253.902344 129.101562 251.910156 131.148438 C 251.585938 131.484375 251.535156 131.550781 251.253906 131.902344 L 247.171875 136.523438 C 246.851562 136.839844 246.808594 136.976562 246.53125 137.292969 L 244.484375 139.597656 C 244.164062 139.917969 244.121094 140.050781 243.84375 140.363281 L 235.148438 150.226562 C 234.863281 150.5625 234.828125 150.660156 234.5 150.988281 C 233.019531 152.476562 231.328125 154.691406 229.765625 156.363281 L 226.4375 160.203125 C 226.160156 160.511719 226.015625 160.609375 225.765625 160.9375 L 218.414062 169.332031 C 217.375 170.675781 216.144531 171.835938 215.050781 173.136719 L 211.71875 176.972656 C 211.394531 177.304688 211.347656 177.375 211.066406 177.726562 C 210.007812 179.046875 208.808594 180.246094 207.6875 181.515625 L 205 184.585938 C 204.703125 184.921875 204.636719 185.074219 204.292969 185.417969 C 203.972656 185.738281 203.933594 185.871094 203.652344 186.183594 C 203.378906 186.496094 203.234375 186.59375 202.980469 186.921875 C 201.578125 188.761719 199.734375 190.484375 198.265625 192.316406 L 183.558594 209.09375 C 182.222656 210.597656 180.929688 212.195312 179.527344 213.640625 C 178.351562 214.84375 177.351562 216.253906 176.199219 217.480469 L 170.195312 224.277344 C 169.894531 224.65625 169.808594 224.742188 169.480469 225.09375 L 168.1875 226.617188 C 167.953125 226.910156 167.746094 227.054688 167.496094 227.335938 L 166.152344 228.933594 C 165.875 229.246094 165.734375 229.34375 165.480469 229.671875 C 164.664062 230.738281 163.609375 231.675781 162.792969 232.742188 C 162.539062 233.074219 162.398438 233.171875 162.121094 233.480469 C 161.824219 233.816406 161.765625 233.96875 161.417969 234.3125 L 159.429688 236.550781 C 157.726562 238.300781 155.785156 240.957031 154.058594 242.695312 C 153.089844 243.667969 152.335938 244.796875 151.371094 245.769531 C 149.09375 248.054688 146.269531 251.878906 144.007812 254.148438 C 143.054688 255.109375 142.269531 256.25 141.324219 257.222656 C 141 257.558594 140.949219 257.625 140.667969 257.976562 C 139.585938 259.328125 138.304688 260.484375 137.246094 261.851562 L 133.898438 265.667969 C 133.578125 265.992188 133.535156 266.121094 133.257812 266.4375 C 132.789062 266.960938 132.308594 267.445312 131.855469 267.980469 L 121.164062 280.199219 C 119.976562 281.390625 118.910156 282.746094 117.828125 284.03125 C 117.574219 284.332031 117.410156 284.429688 117.152344 284.761719 C 116.320312 285.839844 115.328125 286.773438 114.449219 287.820312 Z M 110.441406 292.515625 " fill-opacity="1" fill-rule="evenodd"/><path fill="#16a34a" d="M 123.113281 300.835938 C 124.421875 301.140625 127.925781 303.765625 129.640625 304.164062 L 134.152344 298.949219 C 134.480469 298.617188 134.515625 298.523438 134.800781 298.1875 C 136.488281 296.175781 138.386719 294.328125 140.027344 292.28125 L 142.605469 289.351562 C 144.179688 287.730469 145.589844 285.828125 147.144531 284.164062 L 150.414062 280.394531 C 150.640625 280.125 150.820312 280.003906 151.035156 279.734375 C 151.316406 279.382812 151.367188 279.316406 151.691406 278.984375 L 155.625 274.46875 C 155.855469 274.167969 155.953125 274.078125 156.234375 273.800781 C 157.96875 272.066406 161.695312 267.28125 163.398438 265.605469 L 168.589844 259.660156 C 168.84375 259.359375 169.007812 259.261719 169.265625 258.929688 L 178.371094 248.578125 C 178.652344 248.238281 178.6875 248.144531 179.015625 247.816406 L 180.328125 246.3125 C 180.578125 245.980469 180.722656 245.882812 181 245.574219 L 188.746094 236.679688 C 189.019531 236.371094 189.164062 236.273438 189.414062 235.941406 L 199.175781 224.839844 C 199.484375 224.523438 199.523438 224.382812 199.8125 224.070312 C 200.121094 223.742188 200.183594 223.707031 200.476562 223.324219 C 201.667969 221.789062 203.886719 219.648438 205.03125 218.152344 L 206.988281 215.886719 C 207.242188 215.585938 207.40625 215.488281 207.664062 215.15625 L 210.886719 211.464844 C 212.507812 209.832031 213.808594 207.910156 215.429688 206.28125 L 216.75 204.785156 C 217.046875 204.40625 217.109375 204.371094 217.414062 204.042969 L 219.335938 201.867188 C 219.625 201.554688 219.664062 201.414062 219.972656 201.09375 L 228.484375 191.433594 C 229.898438 189.839844 232.328125 186.855469 233.667969 185.480469 C 235.15625 183.953125 237.574219 181.070312 238.859375 179.535156 C 239.691406 178.542969 240.65625 177.660156 241.453125 176.628906 C 241.75 176.246094 241.8125 176.210938 242.117188 175.882812 C 242.410156 175.570312 242.445312 175.429688 242.753906 175.113281 L 244.085938 173.628906 C 245.527344 171.832031 247.15625 170.214844 248.636719 168.453125 L 264.898438 149.902344 C 265.175781 149.605469 265.199219 149.488281 265.472656 149.195312 L 268.789062 145.472656 C 270.222656 143.679688 271.867188 142.058594 273.339844 140.292969 L 296.160156 114.222656 C 295.984375 113.957031 295.828125 113.785156 295.621094 113.480469 L 294.039062 111.222656 C 293.609375 110.628906 292.242188 108.621094 291.808594 108.332031 L 286.53125 114.320312 C 286.226562 114.644531 286.164062 114.683594 285.867188 115.0625 C 285.609375 115.394531 285.445312 115.492188 285.191406 115.796875 L 269.410156 133.804688 C 268.609375 134.855469 267.589844 135.75 266.777344 136.800781 L 265.476562 138.316406 C 263.160156 140.699219 261.199219 143.421875 258.882812 145.800781 C 257.960938 146.75 257.183594 147.863281 256.261719 148.8125 L 254.273438 151.050781 C 252.808594 152.558594 251.101562 154.761719 249.601562 156.363281 L 243.023438 163.863281 C 240.742188 166.722656 238.140625 169.3125 235.785156 172.113281 L 233.828125 174.378906 C 233.023438 175.429688 232.007812 176.324219 231.195312 177.375 L 219.96875 190.210938 C 219.714844 190.511719 219.546875 190.613281 219.292969 190.945312 C 217.410156 193.375 214.03125 196.71875 212.050781 199.191406 L 210.757812 200.714844 C 210.492188 201.003906 210.332031 201.105469 210.074219 201.4375 L 200.148438 212.757812 C 199.867188 213.109375 199.816406 213.179688 199.492188 213.511719 C 198.570312 214.457031 197.796875 215.574219 196.871094 216.523438 L 195.539062 218.003906 C 195.257812 218.359375 195.210938 218.425781 194.886719 218.757812 L 191.621094 222.535156 C 191.15625 223.054688 190.761719 223.503906 190.277344 224.003906 L 187.65625 227.015625 C 187.335938 227.335938 187.292969 227.46875 187.015625 227.78125 L 178.4375 237.511719 C 177.527344 238.484375 176.757812 239.574219 175.816406 240.519531 L 169.886719 247.261719 C 169.589844 247.640625 169.53125 247.679688 169.222656 248.003906 L 167.929688 249.53125 C 167.699219 249.820312 167.484375 249.96875 167.253906 250.257812 C 166.972656 250.613281 166.921875 250.679688 166.597656 251.011719 L 159.957031 258.578125 C 159.675781 258.929688 159.628906 259 159.304688 259.332031 C 157.605469 261.078125 153.378906 266.152344 151.433594 268.355469 L 142.15625 278.917969 C 141.847656 279.246094 141.785156 279.28125 141.492188 279.664062 C 140.339844 281.152344 135.136719 286.894531 133.578125 288.644531 L 132.292969 290.175781 C 131.4375 291.191406 130.441406 292.109375 129.640625 293.15625 L 125.707031 297.667969 C 125.144531 298.25 123.265625 300.1875 123.113281 300.835938 Z M 123.113281 300.835938 " fill-opacity="1" fill-rule="evenodd"/><path fill="#16a34a" d="M 80.363281 261.285156 C 80.710938 261.804688 81.042969 262.253906 81.414062 262.796875 C 81.910156 263.53125 84.0625 266.695312 84.714844 267.171875 L 88.683594 262.695312 C 88.9375 262.363281 89.078125 262.265625 89.355469 261.957031 L 90.660156 260.445312 C 91.671875 259.136719 92.867188 257.945312 93.960938 256.710938 L 101.835938 247.683594 C 102.160156 247.351562 102.207031 247.285156 102.488281 246.933594 L 105.867188 243.140625 C 106.144531 242.828125 106.1875 242.695312 106.507812 242.375 L 108.492188 240.136719 C 108.785156 239.824219 108.820312 239.683594 109.128906 239.367188 L 115.722656 231.882812 C 116.652344 230.929688 117.417969 229.824219 118.34375 228.871094 L 124.265625 222.121094 C 124.519531 221.792969 124.640625 221.695312 124.941406 221.386719 C 125.25 221.070312 125.285156 220.925781 125.578125 220.613281 C 127.867188 218.167969 129.898438 215.472656 132.238281 213.066406 L 134.859375 210.058594 C 135.179688 209.734375 135.21875 209.605469 135.5 209.289062 C 138.164062 206.289062 141.496094 202.316406 144.074219 199.5625 L 149.382812 193.480469 C 149.710938 193.152344 149.746094 193.058594 150.03125 192.71875 L 151.371094 191.242188 C 151.660156 190.929688 151.699219 190.789062 152.007812 190.472656 L 166.472656 173.964844 C 167.808594 172.449219 169.097656 170.867188 170.503906 169.421875 L 188.933594 148.425781 C 189.214844 148.113281 189.253906 147.980469 189.574219 147.660156 L 198.855469 137.101562 C 199.148438 136.789062 199.183594 136.648438 199.492188 136.332031 C 199.816406 135.996094 199.867188 135.929688 200.148438 135.578125 L 202.125 133.332031 C 203.195312 132.054688 204.394531 130.898438 205.433594 129.601562 L 206.726562 128.074219 C 207.03125 127.75 207.09375 127.710938 207.386719 127.332031 C 208.746094 125.574219 210.617188 123.800781 212.050781 122.011719 L 213.382812 120.527344 C 213.691406 120.210938 213.730469 120.066406 214.019531 119.757812 L 221.253906 111.503906 C 221.53125 111.191406 221.671875 111.097656 221.925781 110.765625 L 225.222656 107.023438 C 226.164062 106.074219 226.902344 104.960938 227.84375 104.011719 L 237.765625 92.6875 C 239.574219 90.652344 241.328125 88.707031 243.082031 86.613281 L 245.730469 83.632812 C 245.984375 83.300781 246.128906 83.203125 246.402344 82.894531 L 251.011719 77.644531 C 251.726562 76.839844 253.15625 75.308594 253.667969 74.542969 L 247.269531 71.089844 C 246.6875 71.476562 245.167969 73.269531 244.632812 73.957031 L 240.757812 78.402344 C 240.527344 78.691406 240.3125 78.84375 240.082031 79.132812 C 239.800781 79.484375 239.75 79.554688 239.425781 79.886719 L 236.222656 83.59375 C 234.535156 85.601562 232.640625 87.445312 230.992188 89.5 C 230.710938 89.851562 230.664062 89.921875 230.339844 90.253906 L 229.039062 91.769531 C 228.78125 92.101562 228.617188 92.199219 228.363281 92.5 L 213.425781 109.558594 C 212.609375 110.609375 211.59375 111.507812 210.789062 112.558594 L 196.425781 128.910156 C 196.144531 129.222656 196.101562 129.355469 195.785156 129.675781 C 195.457031 130.007812 195.421875 130.101562 195.136719 130.4375 C 194.910156 130.707031 194.730469 130.828125 194.515625 131.097656 L 191.242188 134.863281 C 190.917969 135.195312 190.867188 135.261719 190.585938 135.617188 L 187.269531 139.339844 C 186.980469 139.652344 186.941406 139.792969 186.632812 140.109375 C 184.335938 142.46875 182.433594 145.203125 180.101562 147.53125 L 172.339844 156.40625 C 171.191406 157.890625 169.085938 160.074219 167.746094 161.667969 L 154.050781 177.285156 C 152.574219 179.046875 150.933594 180.667969 149.5 182.460938 L 146.246094 186.121094 C 145.324219 187.070312 144.5625 188.1875 143.625 189.128906 L 140.414062 192.828125 C 140.179688 193.121094 139.96875 193.265625 139.722656 193.546875 L 136.523438 197.257812 C 135.164062 198.707031 133.933594 200.3125 132.550781 201.734375 C 130.726562 203.617188 129.203125 205.808594 127.371094 207.691406 L 118.855469 217.351562 C 118.550781 217.667969 118.511719 217.808594 118.21875 218.121094 C 117.914062 218.449219 117.851562 218.484375 117.558594 218.867188 C 116.054688 220.808594 112.820312 224.085938 111.101562 226.234375 C 110.871094 226.527344 110.65625 226.675781 110.425781 226.964844 C 110.140625 227.316406 110.09375 227.386719 109.769531 227.71875 L 99.980469 238.921875 C 99.65625 239.253906 99.609375 239.320312 99.328125 239.675781 L 82.980469 258.269531 C 82.683594 258.648438 82.621094 258.6875 82.316406 259.011719 Z M 80.363281 261.285156 " fill-opacity="1" fill-rule="evenodd"/><path fill="#16a34a" d="M 72.300781 247.847656 C 72.957031 249.085938 75.246094 253.847656 76.140625 254.503906 C 76.257812 254.0625 76.375 254.078125 76.6875 253.765625 L 89.421875 239.238281 C 89.742188 238.917969 89.78125 238.785156 90.0625 238.472656 C 90.523438 237.949219 90.917969 237.503906 91.40625 237 L 101.628906 225.339844 C 102.453125 224.3125 103.324219 223.394531 104.203125 222.40625 L 132.363281 190.28125 C 132.671875 189.980469 132.699219 189.90625 132.949219 189.589844 L 143.832031 177.175781 C 144.0625 176.886719 144.277344 176.734375 144.507812 176.445312 C 144.789062 176.09375 144.839844 176.023438 145.164062 175.691406 C 145.457031 175.390625 145.476562 175.28125 145.738281 174.988281 L 147.082031 173.515625 C 147.390625 173.199219 147.429688 173.058594 147.71875 172.746094 C 151.273438 168.945312 154.472656 164.835938 158.027344 161.035156 C 158.300781 160.742188 158.324219 160.625 158.601562 160.332031 L 177.796875 138.445312 C 178.105469 138.117188 178.167969 138.078125 178.460938 137.699219 L 181.574219 134.15625 C 181.898438 133.820312 181.945312 133.753906 182.230469 133.402344 C 183.855469 131.371094 185.761719 129.582031 187.386719 127.550781 C 187.664062 127.207031 187.707031 127.125 188.039062 126.796875 C 188.96875 125.882812 189.710938 124.800781 190.597656 123.851562 L 194.441406 119.503906 C 194.75 119.1875 194.789062 119.042969 195.078125 118.730469 C 195.5625 118.210938 195.9375 117.78125 196.425781 117.261719 C 196.699219 116.96875 196.722656 116.851562 196.996094 116.554688 L 205.964844 106.324219 C 206.21875 106.023438 206.382812 105.925781 206.640625 105.59375 C 206.914062 105.238281 206.941406 105.21875 207.238281 104.910156 C 207.546875 104.59375 207.585938 104.453125 207.878906 104.140625 L 209.796875 101.964844 C 210.101562 101.636719 210.164062 101.601562 210.460938 101.21875 C 210.703125 100.910156 210.835938 100.828125 211.078125 100.558594 C 212.582031 98.863281 213.980469 97.070312 215.558594 95.441406 C 216.464844 94.511719 217.199219 93.417969 218.117188 92.496094 L 220.675781 89.550781 C 223.316406 86.726562 225.785156 83.738281 228.355469 80.847656 L 237.960938 69.847656 C 238.550781 69.148438 239.605469 68.398438 239.84375 67.503906 C 239.203125 67.355469 238.714844 67.078125 238.089844 66.828125 C 237.460938 66.578125 236.980469 66.386719 236.351562 66.132812 C 235.1875 65.667969 234.027344 65.101562 232.804688 64.816406 L 221.574219 77.648438 C 219.597656 79.683594 217.941406 82.035156 215.941406 84.046875 C 214.597656 85.394531 213.488281 86.972656 212.164062 88.332031 L 204.628906 96.921875 C 204.34375 97.277344 204.296875 97.34375 203.972656 97.675781 L 192.667969 110.5625 C 192.394531 110.917969 192.367188 110.9375 192.070312 111.246094 L 177.671875 127.695312 C 177.375 128 177.347656 128.019531 177.074219 128.375 C 176.816406 128.707031 176.652344 128.804688 176.398438 129.105469 C 175.949219 129.640625 175.617188 130.035156 175.171875 130.566406 L 166.355469 140.570312 C 166.101562 140.890625 166.074219 140.949219 165.769531 141.257812 L 163.847656 143.4375 C 163.542969 143.742188 163.527344 143.824219 163.265625 144.132812 L 156.980469 151.285156 C 156.722656 151.617188 156.554688 151.714844 156.300781 152.019531 L 148.230469 161.226562 C 147.941406 161.539062 147.902344 161.679688 147.59375 161.996094 C 147.296875 162.304688 147.269531 162.324219 146.996094 162.675781 C 146.738281 163.007812 146.574219 163.105469 146.320312 163.410156 L 138.804688 172.019531 C 138.5625 172.332031 138.429688 172.410156 138.1875 172.683594 L 136.9375 174.121094 C 136.6875 174.453125 136.542969 174.550781 136.265625 174.859375 L 133.769531 177.738281 C 133.464844 178.042969 133.449219 178.128906 133.1875 178.4375 C 132.933594 178.738281 132.769531 178.835938 132.511719 179.167969 C 132.238281 179.523438 132.210938 179.542969 131.914062 179.847656 C 131.605469 180.164062 131.566406 180.308594 131.273438 180.621094 C 130.8125 181.113281 130.464844 181.539062 129.992188 182.023438 C 129.699219 182.324219 129.675781 182.4375 129.417969 182.730469 L 127.5 184.90625 C 127.199219 185.214844 127.175781 185.234375 126.898438 185.589844 C 126.644531 185.921875 126.476562 186.019531 126.222656 186.320312 L 122.457031 190.613281 C 122.199219 190.9375 122.171875 190.996094 121.867188 191.304688 L 115.597656 198.476562 C 115.273438 198.808594 115.222656 198.875 114.941406 199.226562 C 114.726562 199.496094 114.546875 199.617188 114.320312 199.886719 C 114.035156 200.226562 114 200.320312 113.675781 200.648438 C 113.371094 200.953125 113.351562 201.039062 113.09375 201.347656 L 108.105469 206.984375 C 107.21875 207.894531 106.5 208.957031 105.613281 209.867188 L 98.667969 217.769531 C 97.902344 218.769531 96.960938 219.652344 96.144531 220.621094 C 95.886719 220.929688 95.867188 221.019531 95.566406 221.320312 L 84.242188 234.1875 C 83.957031 234.527344 83.921875 234.621094 83.597656 234.949219 L 78.574219 240.679688 C 78.335938 240.988281 78.234375 241.0625 77.964844 241.351562 Z M 72.300781 247.847656 " fill-opacity="1" fill-rule="evenodd"/><path fill="#16a34a" d="M 136.425781 307.492188 C 138.023438 307.863281 141.476562 309.6875 143.59375 310.179688 L 145.355469 308.101562 C 145.671875 307.777344 145.714844 307.648438 145.996094 307.332031 L 149.769531 303.042969 C 151.109375 301.695312 152.203125 300.109375 153.546875 298.757812 C 154.886719 297.40625 155.996094 295.835938 157.324219 294.46875 L 159.175781 292.359375 C 159.46875 292.046875 159.507812 291.902344 159.816406 291.585938 L 162.320312 288.714844 C 162.542969 288.445312 162.722656 288.324219 162.941406 288.054688 C 164.582031 286.003906 167.027344 283.632812 168.550781 281.636719 C 168.789062 281.328125 168.890625 281.253906 169.160156 280.964844 L 173.574219 275.910156 C 175.457031 274.015625 177.921875 270.796875 179.847656 268.742188 C 180.300781 268.253906 180.683594 267.828125 181.125 267.332031 C 181.386719 267.039062 181.410156 266.929688 181.703125 266.628906 L 186.691406 260.992188 C 186.972656 260.65625 187.007812 260.558594 187.335938 260.230469 C 187.640625 259.925781 187.65625 259.839844 187.917969 259.53125 C 188.171875 259.230469 188.335938 259.132812 188.59375 258.800781 C 189.90625 257.101562 193.277344 253.554688 194.882812 251.648438 L 199.878906 245.894531 C 200.320312 245.398438 200.703125 244.972656 201.160156 244.488281 C 201.433594 244.195312 201.457031 244.078125 201.734375 243.78125 C 202.039062 243.453125 202.101562 243.417969 202.398438 243.035156 C 203.664062 241.394531 205.417969 239.707031 206.785156 238.082031 C 208.238281 236.351562 211.367188 233.011719 212.453125 231.589844 C 213.597656 230.097656 214.988281 228.722656 216.203125 227.277344 C 216.429688 227.007812 216.609375 226.886719 216.824219 226.617188 L 218.746094 224.441406 C 219 224.121094 219.027344 224.0625 219.335938 223.753906 C 220.464844 222.617188 221.953125 220.765625 223.109375 219.464844 L 224.964844 217.351562 C 225.242188 217.058594 225.265625 216.941406 225.539062 216.648438 C 225.847656 216.320312 225.910156 216.285156 226.203125 215.902344 L 231.238281 210.183594 C 231.542969 209.878906 231.558594 209.796875 231.820312 209.488281 C 232.074219 209.183594 232.238281 209.085938 232.496094 208.753906 C 232.769531 208.398438 232.796875 208.382812 233.09375 208.074219 C 233.402344 207.757812 233.441406 207.617188 233.730469 207.304688 L 241.863281 198.027344 C 243.226562 196.492188 245.042969 194.636719 246.246094 193.066406 C 247.476562 191.453125 249.269531 189.644531 250.628906 188.105469 L 256.902344 180.941406 C 257.785156 180.03125 258.507812 178.96875 259.394531 178.058594 L 271.296875 164.488281 C 271.597656 164.183594 271.621094 164.164062 271.898438 163.808594 L 280.707031 153.800781 C 280.984375 153.488281 281.027344 153.355469 281.347656 153.035156 L 288.898438 144.457031 C 290.808594 142.304688 293.28125 139.234375 295.171875 137.292969 L 303.96875 127.277344 C 303.285156 126.253906 302.753906 125.058594 302.179688 123.949219 C 301.589844 122.8125 300.863281 121.765625 300.257812 120.621094 C 299.609375 121.054688 294.902344 126.800781 293.890625 127.820312 L 292.578125 129.324219 C 291.527344 130.699219 288.382812 134.058594 286.910156 135.816406 L 281.734375 141.648438 C 281.453125 141.988281 281.417969 142.082031 281.089844 142.410156 L 272.769531 151.882812 C 271.226562 153.53125 269.886719 155.398438 268.289062 157.003906 L 265.078125 160.703125 C 264.269531 161.714844 263.292969 162.59375 262.480469 163.609375 L 255.492188 171.59375 C 254.566406 172.523438 253.847656 173.601562 252.933594 174.539062 L 250.359375 177.46875 C 249.546875 178.480469 248.566406 179.367188 247.78125 180.394531 C 246.429688 182.160156 244.769531 183.722656 243.339844 185.421875 L 242.050781 186.953125 C 240.773438 188.390625 239.566406 189.941406 238.210938 191.304688 L 228.582031 202.28125 C 228.34375 202.589844 228.242188 202.664062 227.972656 202.953125 L 224.773438 206.664062 C 224.308594 207.183594 223.914062 207.632812 223.425781 208.132812 L 203.65625 230.730469 C 201.03125 233.433594 198.582031 236.640625 195.972656 239.429688 C 193.796875 241.757812 191.761719 244.371094 189.574219 246.726562 L 183.800781 253.371094 C 182.996094 254.378906 182.011719 255.265625 181.203125 256.273438 C 179.789062 258.042969 178.214844 259.683594 176.710938 261.382812 C 174.847656 263.492188 172.722656 265.8125 171.003906 267.960938 L 169.082031 270.136719 C 168.851562 270.425781 168.636719 270.574219 168.40625 270.867188 L 167.113281 272.390625 C 166.660156 272.875 166.277344 273.300781 165.832031 273.796875 C 163.933594 275.933594 160.453125 280.160156 158.859375 281.796875 L 155.605469 285.457031 C 155.347656 285.78125 155.324219 285.839844 155.015625 286.148438 C 154.695312 286.46875 154.65625 286.601562 154.375 286.914062 L 149.894531 292.035156 C 148.5 293.617188 146.046875 296.222656 144.726562 297.875 L 137.671875 305.921875 C 137.363281 306.242188 137.328125 306.382812 137.035156 306.691406 C 136.71875 307.023438 136.546875 307.03125 136.425781 307.492188 Z M 136.425781 307.492188 " fill-opacity="1" fill-rule="evenodd"/><path fill="#16a34a" d="M 65.773438 233.253906 L 68.71875 240.679688 C 69.117188 240.574219 69.1875 240.445312 69.433594 240.113281 C 69.707031 239.75 69.726562 239.746094 70.03125 239.433594 L 71.222656 238.066406 C 72.167969 236.84375 73.265625 235.753906 74.257812 234.574219 C 74.484375 234.304688 74.664062 234.183594 74.878906 233.914062 C 75.136719 233.59375 75.164062 233.53125 75.46875 233.222656 L 77.328125 231.113281 C 77.621094 230.8125 77.640625 230.703125 77.902344 230.410156 C 79.410156 228.714844 81.328125 226.386719 82.832031 224.839844 C 83.136719 224.523438 83.175781 224.382812 83.46875 224.070312 L 85.257812 222.023438 C 85.566406 221.695312 85.628906 221.660156 85.921875 221.277344 C 86.160156 220.96875 86.285156 220.882812 86.542969 220.617188 C 86.835938 220.316406 86.855469 220.207031 87.117188 219.914062 L 88.972656 217.800781 C 89.242188 217.511719 89.34375 217.4375 89.582031 217.128906 C 90.621094 215.765625 92.207031 214.3125 93.238281 212.980469 L 115.234375 187.871094 C 115.472656 187.558594 115.609375 187.480469 115.851562 187.207031 C 116.109375 186.914062 116.132812 186.804688 116.425781 186.503906 L 132.347656 168.382812 C 132.78125 167.839844 133.109375 167.558594 133.535156 167.007812 C 133.777344 166.695312 133.910156 166.617188 134.152344 166.347656 C 134.433594 166.03125 134.472656 165.898438 134.792969 165.578125 L 154.363281 143.296875 C 155.519531 141.855469 156.875 140.582031 158.003906 139.125 C 158.277344 138.773438 158.304688 138.753906 158.601562 138.445312 C 158.910156 138.128906 158.949219 137.988281 159.238281 137.675781 L 161.714844 134.902344 C 161.988281 134.546875 162.015625 134.527344 162.3125 134.222656 L 185.5 107.746094 C 185.757812 107.414062 185.925781 107.316406 186.175781 107.015625 L 206.328125 84.035156 C 206.582031 83.71875 206.609375 83.644531 206.917969 83.34375 C 207.21875 83.042969 207.25 83.007812 207.515625 82.660156 C 207.773438 82.328125 207.9375 82.230469 208.191406 81.929688 C 208.453125 81.621094 208.46875 81.535156 208.773438 81.230469 C 209.082031 80.921875 209.105469 80.863281 209.363281 80.539062 L 215.542969 73.539062 C 215.800781 73.21875 215.828125 73.15625 216.132812 72.847656 L 224.070312 63.761719 C 224.453125 63.332031 225.101562 62.832031 225.253906 62.257812 C 224.429688 62.1875 220.707031 61.054688 219.570312 60.773438 C 219.003906 60.628906 218.117188 60.335938 217.574219 60.335938 C 217.351562 60.335938 214.683594 63.660156 214.023438 64.335938 L 199.171875 81.230469 C 198.898438 81.523438 198.875 81.640625 198.601562 81.9375 C 198.164062 82.402344 197.882812 82.761719 197.445312 83.214844 L 192.710938 88.59375 C 192.449219 88.886719 192.429688 88.996094 192.136719 89.296875 C 191.835938 89.601562 191.8125 89.621094 191.535156 89.976562 C 190.640625 91.136719 189.554688 92.195312 188.609375 93.320312 C 188.382812 93.589844 188.203125 93.710938 187.988281 93.980469 C 186.476562 95.867188 184.785156 97.613281 183.234375 99.464844 L 176.105469 107.566406 C 175.207031 108.742188 174.105469 109.757812 173.179688 110.914062 L 163.65625 121.738281 C 163.363281 122.039062 163.339844 122.148438 163.078125 122.445312 C 162.855469 122.699219 162.667969 122.828125 162.445312 123.089844 L 160.65625 125.140625 C 157.378906 129.03125 153.941406 132.640625 150.671875 136.53125 C 150.410156 136.839844 150.394531 136.921875 150.089844 137.230469 C 149.78125 137.539062 149.757812 137.597656 149.5 137.917969 L 134.664062 154.828125 C 134.421875 155.097656 134.289062 155.175781 134.046875 155.488281 C 133.773438 155.84375 133.746094 155.863281 133.449219 156.171875 L 132.257812 157.539062 C 132.003906 157.863281 132.003906 157.871094 131.722656 158.15625 L 118.027344 173.769531 C 117.742188 174.054688 117.734375 174.109375 117.5 174.398438 L 116.300781 175.757812 C 116.019531 176.035156 115.921875 176.125 115.691406 176.425781 L 106.1875 187.273438 C 105.882812 187.582031 105.855469 187.644531 105.597656 187.964844 C 105.382812 188.234375 105.203125 188.355469 104.976562 188.625 L 93.195312 202.054688 C 91.957031 203.378906 90.898438 204.863281 89.609375 206.152344 L 88.410156 207.511719 C 88.152344 207.832031 88.125 207.890625 87.820312 208.199219 L 84.824219 211.605469 C 84.421875 212.109375 84.113281 212.421875 83.710938 212.921875 C 82.585938 214.332031 81.207031 215.566406 80.109375 217 L 75.917969 221.765625 C 75.613281 222.074219 75.59375 222.15625 75.335938 222.464844 C 75.128906 222.710938 74.976562 222.808594 74.769531 223.054688 C 74.511719 223.363281 74.492188 223.445312 74.191406 223.753906 L 71.1875 227.148438 C 70.230469 228.289062 69.109375 229.382812 68.207031 230.566406 L 66.414062 232.617188 C 66.175781 232.929688 66.109375 233.03125 65.773438 233.253906 Z M 65.773438 233.253906 " fill-opacity="1" fill-rule="evenodd"/><path fill="#16a34a" d="M 151.144531 312.738281 C 151.652344 312.78125 152.507812 313.101562 152.964844 313.226562 C 153.648438 313.410156 154.265625 313.585938 154.882812 313.738281 C 155.578125 313.910156 156.117188 314.046875 156.828125 314.222656 C 159.976562 315.011719 158.59375 314.714844 161.226562 312.066406 C 162.265625 311.019531 163.164062 309.824219 164.167969 308.742188 L 166.535156 305.988281 C 166.804688 305.699219 166.910156 305.625 167.144531 305.316406 L 170.058594 301.957031 C 171.234375 300.632812 172.507812 299.355469 173.597656 297.945312 L 176.007812 295.234375 C 176.269531 294.941406 176.289062 294.832031 176.582031 294.53125 C 177.050781 294.050781 177.328125 293.679688 177.800781 293.191406 L 178.9375 291.894531 C 179.195312 291.574219 179.222656 291.515625 179.527344 291.207031 L 191.957031 277.011719 C 193.085938 275.597656 194.40625 274.332031 195.539062 272.914062 L 197.894531 270.277344 C 198.152344 269.984375 198.175781 269.871094 198.46875 269.570312 L 203.207031 264.199219 C 204.640625 262.753906 208.003906 258.625 209.734375 256.777344 L 215.046875 250.695312 C 215.351562 250.386719 215.378906 250.324219 215.636719 250.003906 C 215.835938 249.753906 215.984375 249.652344 216.195312 249.414062 L 220.359375 244.617188 C 222.121094 242.632812 223.964844 240.683594 225.617188 238.613281 C 225.832031 238.34375 226.011719 238.214844 226.246094 237.960938 C 226.519531 237.667969 226.546875 237.546875 226.820312 237.253906 C 227.089844 236.964844 227.191406 236.890625 227.429688 236.582031 C 227.664062 236.273438 227.765625 236.203125 228.039062 235.914062 C 228.3125 235.617188 228.335938 235.5 228.613281 235.207031 C 230.265625 233.4375 231.703125 231.480469 233.414062 229.769531 L 237.523438 225.046875 C 237.738281 224.777344 237.917969 224.65625 238.144531 224.386719 C 238.402344 224.078125 238.417969 223.992188 238.722656 223.6875 L 245.1875 216.328125 C 246.65625 214.851562 248.402344 212.582031 249.925781 210.953125 L 255.824219 204.183594 C 257.121094 202.558594 258.585938 201.054688 259.96875 199.496094 C 260.230469 199.203125 260.253906 199.089844 260.546875 198.789062 L 262.339844 196.746094 C 262.582031 196.472656 262.714844 196.394531 262.957031 196.082031 L 269.464844 188.640625 C 269.707031 188.328125 269.839844 188.25 270.082031 187.976562 L 290.816406 164.296875 C 291.125 163.988281 291.148438 163.929688 291.40625 163.609375 L 296.691406 157.628906 C 298.1875 155.765625 299.902344 154.082031 301.390625 152.214844 C 301.605469 151.949219 301.78125 151.820312 302.019531 151.566406 L 303.808594 149.515625 C 304.085938 149.222656 304.109375 149.105469 304.382812 148.8125 L 306.785156 146.09375 C 307.394531 145.296875 310.367188 142.230469 310.367188 141.996094 C 310.367188 141.238281 309.339844 139.042969 309.015625 138.230469 C 308.671875 137.363281 307.621094 135.390625 307.554688 134.574219 C 306.890625 134.75 305.039062 137.15625 304.445312 137.863281 C 304.21875 138.132812 304.039062 138.25 303.820312 138.519531 C 303.566406 138.84375 303.539062 138.902344 303.234375 139.210938 C 302.914062 139.53125 302.871094 139.664062 302.59375 139.980469 L 300.109375 142.746094 C 298.015625 145.367188 295.585938 147.71875 293.492188 150.335938 L 288.578125 155.914062 C 288.269531 156.230469 288.230469 156.375 287.9375 156.683594 L 279.425781 166.347656 C 279.121094 166.652344 279.105469 166.734375 278.84375 167.046875 L 276.992188 169.160156 C 276.550781 169.660156 276.167969 170.085938 275.714844 170.570312 C 275.4375 170.863281 275.414062 170.980469 275.140625 171.277344 C 274.867188 171.566406 274.765625 171.636719 274.53125 171.945312 C 273.398438 173.429688 271.949219 174.691406 270.820312 176.171875 L 264.195312 183.753906 C 263.917969 184.0625 263.777344 184.160156 263.523438 184.488281 L 261.0625 187.273438 C 260.800781 187.570312 260.777344 187.679688 260.484375 187.980469 L 254.980469 194.25 C 254.683594 194.558594 254.65625 194.578125 254.382812 194.929688 C 254.125 195.261719 253.960938 195.363281 253.707031 195.664062 C 253.449219 195.96875 253.429688 196.0625 253.125 196.363281 C 252.84375 196.644531 252.746094 196.730469 252.515625 197.035156 C 252.28125 197.34375 252.175781 197.414062 251.90625 197.703125 L 243.972656 206.792969 C 243.675781 207.101562 243.648438 207.121094 243.375 207.476562 L 241.527344 209.597656 C 241.3125 209.867188 241.132812 209.984375 240.90625 210.253906 C 239.914062 211.4375 238.816406 212.523438 237.871094 213.746094 L 234.175781 217.988281 C 231.804688 220.804688 229.246094 223.480469 226.878906 226.304688 L 225.671875 227.65625 C 225.371094 227.964844 225.34375 227.984375 225.070312 228.335938 C 224.8125 228.667969 224.648438 228.769531 224.394531 229.070312 L 217.71875 236.730469 C 217.503906 237 217.324219 237.121094 217.097656 237.390625 L 214.078125 240.898438 C 213.855469 241.167969 213.675781 241.285156 213.457031 241.554688 L 211.597656 243.660156 C 211.335938 243.96875 211.320312 244.054688 211.015625 244.359375 L 209.746094 245.78125 C 207.28125 248.859375 203.933594 252.332031 201.28125 255.488281 L 196.359375 261.0625 C 196.054688 261.367188 196.039062 261.449219 195.777344 261.761719 C 194.378906 263.421875 192.796875 264.953125 191.445312 266.644531 L 182.300781 277.082031 C 182.027344 277.4375 182 277.457031 181.703125 277.765625 L 177.414062 282.691406 C 177.171875 282.964844 177.039062 283.042969 176.796875 283.355469 L 172.488281 288.261719 C 171.484375 289.390625 170.367188 290.542969 169.449219 291.75 L 162.761719 299.398438 C 162.492188 299.6875 162.386719 299.757812 162.152344 300.066406 C 161.019531 301.546875 159.574219 302.808594 158.441406 304.292969 L 152.335938 311.242188 C 151.996094 311.644531 151.273438 312.253906 151.144531 312.738281 Z M 151.144531 312.738281 " fill-opacity="1" fill-rule="evenodd"/><path fill="#16a34a" d="M 60.78125 216.871094 C 61.128906 218.355469 62.433594 223.832031 63.085938 225.191406 C 63.242188 225.085938 64.089844 224.140625 64.257812 223.929688 L 78.410156 207.75 C 79.628906 206.5 80.710938 205.089844 81.871094 203.785156 L 83.019531 202.503906 C 83.324219 202.199219 83.34375 202.117188 83.601562 201.808594 C 83.804688 201.566406 83.964844 201.453125 84.175781 201.226562 L 94.988281 188.875 C 95.265625 188.589844 95.265625 188.523438 95.507812 188.238281 L 97.242188 186.261719 C 97.4375 186.015625 97.582031 185.90625 97.804688 185.675781 L 100.113281 182.992188 C 101.589844 181.238281 103.230469 179.609375 104.664062 177.816406 L 108.683594 173.261719 C 108.960938 172.976562 108.960938 172.90625 109.199219 172.625 L 110.9375 170.648438 C 111.132812 170.402344 111.277344 170.292969 111.5 170.0625 L 120.652344 159.628906 C 120.925781 159.332031 120.949219 159.21875 121.226562 158.921875 C 121.660156 158.457031 121.941406 158.097656 122.378906 157.644531 L 123.515625 156.351562 C 123.917969 155.847656 124.230469 155.535156 124.632812 155.03125 L 127.503906 151.761719 C 128.980469 150.007812 130.621094 148.378906 132.054688 146.585938 L 133.191406 145.289062 C 133.492188 144.984375 133.519531 144.964844 133.792969 144.609375 C 134.863281 143.222656 136.195312 142.046875 137.269531 140.664062 L 153.164062 122.511719 C 153.40625 122.238281 153.539062 122.160156 153.777344 121.847656 C 154.054688 121.492188 154.078125 121.472656 154.378906 121.167969 L 159.445312 115.355469 C 161.066406 113.328125 164.28125 110.082031 165.789062 108.132812 C 166.84375 106.773438 168.144531 105.589844 169.210938 104.257812 C 169.613281 103.753906 169.921875 103.441406 170.324219 102.9375 C 170.523438 102.691406 170.675781 102.585938 170.886719 102.347656 L 172.683594 100.304688 C 174.285156 98.65625 175.648438 96.804688 177.226562 95.121094 C 178.789062 93.449219 180.171875 91.578125 181.769531 89.9375 C 182.046875 89.652344 182.046875 89.585938 182.285156 89.300781 L 186.3125 84.753906 C 186.59375 84.472656 186.609375 84.410156 186.835938 84.125 C 187.050781 83.855469 187.230469 83.734375 187.457031 83.464844 L 201.210938 67.777344 C 202.238281 66.492188 208.945312 59.222656 209.125 58.542969 C 208.476562 58.542969 207.785156 58.363281 207.101562 58.265625 C 205.996094 58.113281 201.21875 57.332031 200.613281 57.578125 L 193.875 65.179688 C 193.472656 65.683594 193.164062 65.996094 192.761719 66.5 L 182.03125 78.675781 C 181.769531 78.988281 181.753906 79.070312 181.449219 79.375 L 174.675781 87.066406 C 174.273438 87.570312 173.964844 87.882812 173.5625 88.386719 L 172.425781 89.679688 C 171.96875 90.148438 171.730469 90.496094 171.269531 90.957031 L 168.457031 94.15625 C 168.195312 94.4375 168.1875 94.523438 167.941406 94.796875 C 165.675781 97.347656 163.5 99.972656 161.160156 102.476562 L 156.15625 108.226562 C 155.941406 108.496094 155.761719 108.613281 155.535156 108.882812 C 155.296875 109.167969 155.296875 109.234375 155.019531 109.519531 L 151.621094 113.414062 C 151.398438 113.679688 151.210938 113.808594 150.984375 114.0625 C 150.742188 114.339844 150.734375 114.425781 150.472656 114.703125 L 147.65625 117.902344 C 147.378906 118.183594 147.375 118.195312 147.125 118.519531 C 146.882812 118.832031 146.75 118.910156 146.507812 119.183594 L 144.265625 121.804688 C 142.265625 124.066406 138.710938 127.921875 136.957031 130.113281 L 135.820312 131.40625 C 135.519531 131.714844 135.492188 131.730469 135.21875 132.085938 C 134.1875 133.421875 132.9375 134.605469 131.855469 135.890625 C 130.824219 137.117188 129.574219 138.667969 128.457031 139.789062 C 127.078125 141.179688 125.886719 142.769531 124.554688 144.203125 L 123.425781 145.507812 C 123.175781 145.828125 123.171875 145.839844 122.890625 146.125 C 122.605469 146.410156 122.597656 146.460938 122.367188 146.75 L 118.34375 151.304688 C 118.066406 151.589844 118.066406 151.65625 117.828125 151.941406 L 116.074219 153.898438 C 115.050781 155.242188 113.835938 156.449219 112.714844 157.707031 C 112.472656 157.984375 112.464844 158.070312 112.203125 158.347656 C 111.933594 158.636719 111.832031 158.710938 111.59375 159.019531 L 103.691406 168.011719 C 102.691406 169.015625 101.851562 170.167969 100.875 171.210938 L 80.601562 194.328125 C 80.34375 194.648438 80.320312 194.707031 80.011719 195.015625 C 79.726562 195.300781 79.71875 195.355469 79.488281 195.644531 L 61.402344 216.214844 C 61.121094 216.570312 61.179688 216.605469 60.78125 216.871094 Z M 60.78125 216.871094 " fill-opacity="1" fill-rule="evenodd"/><g clip-path="url(#7bf87f05fd)"><path fill="#16a34a" d="M 167.144531 316.324219 C 167.765625 316.621094 174.453125 317.371094 175.71875 317.476562 L 176.773438 316.226562 C 177.054688 315.945312 177.058594 315.933594 177.308594 315.609375 L 178.4375 314.304688 C 178.675781 314.050781 178.851562 313.921875 179.066406 313.65625 C 179.46875 313.152344 179.777344 312.839844 180.179688 312.335938 L 206.675781 282.128906 C 206.890625 281.859375 207.070312 281.738281 207.296875 281.472656 C 207.535156 281.1875 207.535156 281.121094 207.8125 280.835938 L 214.59375 273.152344 C 215.515625 272.050781 216.574219 271.003906 217.445312 269.863281 C 217.664062 269.578125 217.730469 269.523438 217.992188 269.253906 L 219.71875 267.269531 C 220.003906 266.984375 220.011719 266.933594 220.242188 266.644531 C 220.457031 266.375 220.636719 266.246094 220.871094 265.992188 C 221.128906 265.714844 221.140625 265.625 221.382812 265.351562 C 222.765625 263.792969 225.300781 261.089844 226.480469 259.566406 L 236.035156 248.644531 C 237.027344 247.585938 237.898438 246.410156 238.917969 245.382812 C 240.097656 244.199219 243.695312 239.878906 245.0625 238.34375 C 245.304688 238.070312 245.4375 237.992188 245.679688 237.679688 C 245.929688 237.355469 245.933594 237.347656 246.210938 237.0625 C 247.214844 236.058594 248.023438 234.875 249.027344 233.863281 L 256.964844 224.777344 C 258.085938 223.515625 259.300781 222.304688 260.324219 220.96875 L 263.75 217.097656 C 265.480469 215.246094 267.058594 213.242188 268.738281 211.335938 C 268.964844 211.085938 269.152344 210.957031 269.375 210.691406 L 273.289062 206.160156 C 273.515625 205.890625 273.695312 205.769531 273.910156 205.5 C 274.3125 204.996094 274.621094 204.683594 275.023438 204.183594 C 275.21875 203.9375 275.363281 203.828125 275.589844 203.59375 C 275.863281 203.3125 275.867188 203.242188 276.105469 202.960938 C 276.308594 202.714844 276.464844 202.613281 276.667969 202.371094 L 280.644531 197.769531 C 280.855469 197.53125 281.007812 197.429688 281.207031 197.179688 C 282.457031 195.617188 283.882812 194.230469 285.136719 192.664062 C 285.335938 192.414062 285.484375 192.3125 285.695312 192.074219 C 285.957031 191.777344 285.980469 191.667969 286.273438 191.367188 L 299.84375 175.882812 C 300.054688 175.644531 300.207031 175.542969 300.40625 175.292969 L 306.625 168.203125 C 306.886719 167.925781 306.894531 167.839844 307.136719 167.5625 L 310.015625 164.296875 C 311.335938 162.976562 312.726562 161.230469 313.984375 159.816406 C 314.246094 159.523438 314.265625 159.414062 314.558594 159.113281 C 315.835938 157.808594 315.289062 157.894531 314.234375 153.746094 C 313.933594 152.5625 313.28125 151.105469 313.183594 149.933594 C 312.660156 150.285156 312.40625 150.679688 311.996094 151.175781 C 310.894531 152.488281 309.625 153.699219 308.558594 155.03125 L 284.097656 182.921875 C 283.839844 183.214844 283.816406 183.328125 283.523438 183.628906 L 282.371094 184.90625 C 282.085938 185.191406 282.078125 185.246094 281.84375 185.53125 C 281.628906 185.800781 281.449219 185.921875 281.222656 186.191406 L 279.554688 188.105469 C 277.957031 189.8125 276.542969 191.644531 274.945312 193.351562 L 270.402344 198.539062 C 270.144531 198.832031 270.121094 198.941406 269.828125 199.242188 C 269.605469 199.476562 269.460938 199.585938 269.265625 199.832031 C 269.007812 200.152344 268.980469 200.210938 268.675781 200.519531 L 260.738281 209.609375 C 260.527344 209.847656 260.375 209.949219 260.175781 210.199219 C 259.917969 210.519531 259.894531 210.578125 259.585938 210.886719 L 248.164062 223.910156 C 247.949219 224.195312 247.878906 224.25 247.617188 224.519531 C 247.324219 224.820312 247.304688 224.929688 247.042969 225.222656 L 240.757812 232.378906 C 240.542969 232.648438 240.363281 232.769531 240.136719 233.039062 C 238.667969 234.785156 237.023438 236.449219 235.601562 238.226562 C 235.195312 238.734375 234.828125 239.054688 234.46875 239.527344 L 232.195312 242.117188 C 230.761719 243.5625 227.960938 246.941406 226.503906 248.585938 L 219.089844 257.042969 C 217.148438 259.46875 214.855469 261.890625 212.808594 264.199219 C 211.320312 265.871094 209.203125 268.53125 207.75 270.023438 L 199.113281 279.816406 C 197.972656 281.097656 196.925781 282.5 195.71875 283.714844 C 195.433594 284 195.425781 284.054688 195.195312 284.34375 L 188.902344 291.492188 C 187.84375 292.878906 186.570312 294.125 185.417969 295.429688 C 185.171875 295.703125 185.164062 295.792969 184.90625 296.070312 C 183.914062 297.128906 183.042969 298.304688 182.023438 299.332031 Z M 167.144531 316.324219 " fill-opacity="1" fill-rule="evenodd"/></g><g clip-path="url(#cd29fe47b9)"><path fill="#16a34a" d="M 181.734375 57.007812 C 181.179688 58.058594 178.855469 60.289062 177.96875 61.433594 C 176.644531 63.144531 174.984375 64.722656 173.582031 66.390625 L 167.304688 73.550781 C 167.058594 73.8125 167.070312 73.863281 166.851562 74.121094 L 152.316406 90.691406 C 152.132812 90.917969 152.015625 91 151.816406 91.214844 C 151.570312 91.476562 151.582031 91.527344 151.363281 91.785156 L 148.878906 94.546875 C 147.640625 96.027344 146.253906 97.410156 145.074219 98.9375 L 124.246094 122.648438 C 124.015625 122.9375 124.007812 122.992188 123.722656 123.277344 C 123.320312 123.683594 123.164062 123.960938 122.761719 124.363281 C 121.394531 125.738281 120.148438 127.335938 118.859375 128.78125 C 118.632812 129.039062 118.636719 129.097656 118.410156 129.355469 L 117.453125 130.445312 C 117.253906 130.660156 117.132812 130.742188 116.953125 130.96875 C 116.601562 131.40625 116.328125 131.644531 116 132.066406 C 115.636719 132.535156 115.375 132.738281 115.050781 133.164062 C 114.722656 133.59375 114.421875 133.800781 114.082031 134.242188 C 113.449219 135.058594 112.765625 135.710938 112.125 136.511719 L 109.714844 139.21875 C 109.496094 139.476562 109.507812 139.527344 109.261719 139.789062 C 107.078125 142.121094 105.039062 144.636719 102.921875 147.019531 L 101.964844 148.109375 C 101.765625 148.320312 101.644531 148.40625 101.464844 148.632812 L 100.042969 150.285156 C 99.84375 150.496094 99.726562 150.582031 99.542969 150.808594 C 98.164062 152.535156 96.640625 154.148438 95.179688 155.789062 C 93.054688 158.183594 91.042969 160.667969 88.84375 163.019531 C 88.597656 163.28125 88.609375 163.328125 88.390625 163.589844 L 85.011719 167.375 C 84.792969 167.636719 84.804688 167.683594 84.558594 167.949219 C 84.359375 168.160156 84.238281 168.246094 84.058594 168.472656 C 83.707031 168.910156 83.433594 169.144531 83.105469 169.570312 L 80.652344 172.363281 C 79.148438 173.96875 77.835938 175.78125 76.300781 177.355469 C 75.902344 177.765625 75.726562 178.058594 75.339844 178.441406 C 73.972656 179.820312 72.769531 181.429688 71.4375 182.855469 C 71.191406 183.121094 71.203125 183.167969 70.984375 183.429688 C 68.632812 186.222656 66.027344 188.824219 63.746094 191.675781 L 59.855469 196.109375 C 59.652344 196.3125 59.53125 196.410156 59.355469 196.628906 C 57.71875 198.679688 57.757812 198.105469 58.148438 200.945312 C 58.261719 201.765625 58.292969 202.425781 58.402344 203.25 C 58.617188 204.824219 58.988281 206.242188 58.988281 207.785156 C 59.523438 207.644531 59.730469 207.109375 60.109375 206.730469 C 61.273438 205.558594 65.046875 201.046875 66.253906 199.691406 C 66.464844 199.453125 66.617188 199.347656 66.816406 199.101562 C 68.609375 196.859375 71.992188 193.171875 73.996094 190.921875 L 78.097656 186.191406 C 78.304688 185.949219 78.457031 185.847656 78.664062 185.605469 L 80.730469 183.191406 C 80.910156 182.964844 81.03125 182.878906 81.230469 182.667969 C 82.484375 181.324219 83.585938 179.835938 84.878906 178.507812 L 87.96875 174.945312 C 88.175781 174.679688 88.242188 174.636719 88.460938 174.410156 L 116.988281 141.886719 C 117.355469 141.433594 117.671875 141.140625 117.996094 140.714844 C 118.335938 140.269531 118.679688 140.011719 119.019531 139.5625 C 119.34375 139.140625 119.660156 138.847656 120.023438 138.394531 L 123.664062 134.226562 C 123.867188 133.984375 124.023438 133.882812 124.230469 133.640625 L 136.585938 119.5 C 136.816406 119.253906 136.914062 119.191406 137.140625 118.902344 L 144.839844 110.09375 C 145.277344 109.640625 145.488281 109.3125 145.929688 108.878906 C 146.832031 107.992188 147.59375 106.9375 148.425781 106 C 148.636719 105.761719 148.789062 105.65625 148.988281 105.410156 C 150.328125 103.734375 152.480469 101.597656 153.652344 100.089844 L 159.878906 93.003906 C 160.121094 92.730469 160.132812 92.644531 160.390625 92.367188 C 161.144531 91.5625 161.753906 90.804688 162.503906 90 L 168.648438 82.957031 C 170.652344 80.898438 172.429688 78.546875 174.410156 76.433594 L 178.503906 71.695312 C 178.714844 71.457031 178.867188 71.355469 179.066406 71.105469 C 180.539062 69.265625 182.210938 67.6875 183.675781 65.859375 C 183.90625 65.570312 183.914062 65.515625 184.199219 65.230469 L 189.394531 59.292969 C 189.578125 59.066406 189.695312 58.984375 189.894531 58.769531 L 191.464844 56.878906 C 189.839844 56.878906 188.21875 56.878906 186.597656 56.878906 C 184.816406 56.878906 183.410156 57.007812 181.734375 57.007812 Z M 181.734375 57.007812 " fill-opacity="1" fill-rule="evenodd"/></g><g clip-path="url(#f6406e149c)"><path fill="#16a34a" d="M 188.523438 318.113281 C 189.207031 318.101562 189.863281 318.074219 190.457031 318.007812 L 195.304688 317.859375 C 195.644531 317.210938 195.804688 317.242188 196.21875 316.726562 L 199.25 313.230469 C 199.433594 313.003906 199.550781 312.921875 199.75 312.707031 C 200.636719 311.761719 201.390625 310.6875 202.3125 309.765625 L 204.351562 307.453125 C 205.332031 306.289062 206.445312 305.179688 207.386719 303.960938 L 209.414062 301.636719 C 209.613281 301.421875 209.730469 301.335938 209.914062 301.109375 L 213.445312 297.09375 C 213.691406 296.832031 213.683594 296.78125 213.898438 296.523438 L 216.476562 293.59375 C 216.679688 293.328125 216.746094 293.289062 216.96875 293.0625 C 217.246094 292.777344 217.246094 292.710938 217.484375 292.425781 L 218.5 291.269531 C 218.699219 291.054688 218.820312 290.96875 219 290.742188 L 231.121094 276.882812 C 231.320312 276.632812 231.472656 276.53125 231.683594 276.292969 C 231.910156 276.035156 231.90625 275.976562 232.132812 275.71875 L 254.03125 250.773438 C 254.214844 250.546875 254.332031 250.460938 254.53125 250.246094 L 285.507812 214.921875 C 285.753906 214.660156 285.742188 214.609375 285.960938 214.351562 L 290.050781 209.738281 C 290.964844 208.800781 291.683594 207.722656 292.609375 206.792969 L 295.617188 203.402344 C 296.828125 202.101562 297.890625 200.652344 299.140625 199.371094 L 305.21875 192.394531 C 305.429688 192.15625 305.582031 192.054688 305.78125 191.804688 L 308.289062 188.9375 C 308.550781 188.660156 308.558594 188.574219 308.800781 188.300781 L 314.921875 181.363281 C 315.871094 180.136719 316.960938 179.082031 317.96875 177.882812 C 318.589844 177.136719 318.238281 177.136719 318.179688 176.167969 C 318.101562 174.792969 317.933594 173.535156 317.78125 172.214844 C 317.710938 171.597656 317.617188 170.929688 317.53125 170.289062 C 317.035156 166.753906 317.183594 168.015625 315.328125 169.996094 L 309.269531 176.863281 C 308.886719 177.359375 308.652344 177.539062 308.265625 178.035156 C 308.0625 178.300781 307.996094 178.34375 307.777344 178.570312 L 302.707031 184.382812 C 301.328125 186.105469 298.78125 188.78125 297.148438 190.722656 C 296.960938 190.945312 296.828125 191.03125 296.644531 191.242188 C 296.398438 191.515625 296.390625 191.605469 296.128906 191.882812 C 295.929688 192.097656 295.8125 192.179688 295.628906 192.40625 L 294.082031 194.183594 C 293.824219 194.449219 293.828125 194.492188 293.621094 194.75 L 284.476562 205.1875 C 284.273438 205.425781 284.113281 205.542969 283.90625 205.765625 L 264.65625 227.734375 C 264.28125 228.203125 263.972656 228.460938 263.632812 228.886719 C 261.085938 232.074219 258.121094 235.035156 255.496094 238.15625 L 250.4375 243.976562 C 250.234375 244.179688 250.113281 244.28125 249.9375 244.5 C 248.542969 246.242188 246.730469 247.976562 245.402344 249.691406 C 244.328125 251.082031 243.03125 252.386719 241.863281 253.703125 C 241.617188 253.976562 241.609375 254.066406 241.347656 254.34375 L 232.199219 264.777344 C 231.457031 265.535156 230.894531 266.332031 230.148438 267.074219 C 229.890625 267.332031 229.902344 267.34375 229.679688 267.632812 C 229.453125 267.921875 229.355469 267.980469 229.125 268.230469 C 228.878906 268.492188 228.890625 268.539062 228.671875 268.800781 L 219.523438 279.234375 C 219.3125 279.472656 219.160156 279.578125 218.960938 279.828125 C 217.992188 281.039062 216.945312 282.003906 215.984375 283.246094 L 214.976562 284.414062 C 214.789062 284.636719 214.65625 284.722656 214.472656 284.933594 L 205.324219 295.371094 C 205.085938 295.652344 205.085938 295.71875 204.808594 296.007812 L 198.703125 302.957031 C 198.5 303.222656 198.433594 303.265625 198.214844 303.492188 L 196.167969 305.796875 C 195.925781 306.070312 195.914062 306.160156 195.65625 306.4375 L 186.503906 316.867188 C 186.191406 317.191406 185.695312 317.667969 185.574219 318.117188 L 188.523438 318.117188 Z M 188.523438 318.113281 " fill-opacity="1" fill-rule="evenodd"/></g><g clip-path="url(#83fe3e7c01)"><path fill="#16a34a" d="M 57.453125 186.921875 C 57.988281 186.78125 58 186.445312 58.382812 186.058594 C 59.945312 184.476562 61.328125 182.65625 62.800781 181.003906 L 63.695312 179.980469 C 63.863281 179.792969 63.972656 179.714844 64.140625 179.527344 L 69.871094 172.96875 C 71.214844 171.210938 72.9375 169.675781 74.296875 167.925781 L 79.566406 161.933594 C 81.644531 159.710938 84.628906 155.894531 86.601562 153.867188 C 86.984375 153.472656 87.144531 153.207031 87.5 152.84375 C 89.214844 151.078125 90.695312 149.125 92.363281 147.339844 L 94.554688 144.792969 C 95.6875 143.375 96.988281 142.226562 98.101562 140.789062 C 99.433594 139.070312 101.953125 136.410156 103.433594 134.730469 L 107.789062 129.742188 C 108.144531 129.378906 108.304688 129.109375 108.683594 128.71875 C 110.574219 126.777344 112.152344 124.488281 114.058594 122.574219 L 126.386719 108.535156 C 127.488281 107.117188 128.8125 105.894531 129.917969 104.511719 L 136.96875 96.464844 C 137.363281 96.074219 137.484375 95.820312 137.863281 95.4375 C 139.148438 94.148438 140.175781 92.621094 141.449219 91.34375 L 154.675781 76.28125 C 155.023438 75.828125 155.242188 75.679688 155.570312 75.257812 C 156.519531 74.03125 157.621094 72.9375 158.605469 71.765625 L 163.53125 66.191406 C 163.871094 65.828125 163.976562 65.613281 164.359375 65.234375 C 164.753906 64.84375 164.875 64.589844 165.253906 64.207031 C 166.855469 62.597656 168.144531 60.6875 169.734375 59.089844 C 170.078125 58.746094 170.34375 58.414062 170.601562 58.03125 C 168.722656 58.074219 162.875 59.285156 160.96875 59.664062 C 158.394531 60.175781 159.296875 60.316406 157.644531 61.96875 C 156.683594 62.929688 155.886719 64.042969 154.953125 65.042969 L 151.433594 69.070312 C 149.898438 70.796875 145.433594 75.699219 144.363281 77.105469 C 143.289062 78.507812 141.957031 79.75 140.816406 81.109375 C 140.042969 82.027344 135.023438 87.90625 133.769531 89.167969 C 133.40625 89.535156 133.304688 89.761719 132.9375 90.128906 C 131.679688 91.394531 130.652344 92.890625 129.421875 94.160156 L 123.203125 101.257812 C 121.3125 103.507812 117.773438 107.15625 116.128906 109.285156 C 115.554688 110.023438 114.988281 110.558594 114.378906 111.246094 L 108.613281 117.894531 C 108.449219 118.09375 108.339844 118.164062 108.171875 118.347656 C 106.957031 119.644531 105.914062 121.113281 104.652344 122.382812 C 104.265625 122.773438 104.132812 123.027344 103.757812 123.40625 C 103.367188 123.796875 103.238281 124.050781 102.859375 124.429688 L 100.683594 126.863281 C 100.457031 127.117188 100.460938 127.179688 100.234375 127.4375 L 94.917969 133.511719 C 93.027344 135.761719 89.488281 139.410156 87.84375 141.539062 L 85.199219 144.527344 C 84.984375 144.765625 85.007812 144.792969 84.808594 145.03125 L 79.882812 150.601562 C 77.972656 152.644531 75.496094 155.878906 73.679688 157.707031 C 73.304688 158.082031 73.195312 158.308594 72.847656 158.667969 C 71.136719 160.429688 67.96875 164.175781 66.632812 165.765625 C 65.460938 167.15625 64.175781 168.34375 63.085938 169.769531 C 62.023438 171.160156 60.617188 172.417969 59.554688 173.792969 C 58.121094 175.644531 57.859375 174.957031 57.835938 177.703125 L 57.585938 183.214844 C 57.578125 183.878906 57.472656 184.128906 57.453125 184.761719 Z M 57.453125 186.921875 " fill-opacity="1" fill-rule="evenodd"/></g><g clip-path="url(#83ea4d91c3)"><path fill="#16a34a" d="M 205.796875 316.835938 C 207.421875 316.835938 210.558594 316.152344 212.210938 315.824219 C 213.738281 315.515625 215.472656 315.332031 216.878906 314.863281 C 217.210938 314.753906 217.203125 314.726562 217.398438 314.484375 L 224.90625 305.867188 C 226.675781 303.761719 229.511719 300.902344 231.085938 298.863281 C 231.4375 298.410156 231.65625 298.261719 231.984375 297.839844 C 233.070312 296.429688 234.347656 295.148438 235.523438 293.828125 L 239.875 288.835938 C 241.136719 287.570312 242.160156 286.070312 243.394531 284.804688 L 245.1875 282.753906 C 245.359375 282.574219 245.472656 282.492188 245.636719 282.308594 C 245.863281 282.050781 245.859375 281.988281 246.085938 281.734375 C 247.558594 280.078125 249.058594 278.492188 250.449219 276.753906 C 252.410156 274.304688 256.398438 270.230469 258.421875 267.703125 L 273.359375 250.644531 C 273.664062 250.265625 273.921875 250.035156 274.253906 249.621094 C 276.457031 246.871094 279.128906 244.347656 281.332031 241.59375 L 289.21875 232.585938 C 289.59375 232.207031 289.726562 231.949219 290.113281 231.558594 L 291.90625 229.511719 C 293.265625 228.171875 294.925781 226.023438 296.257812 224.519531 L 297.15625 223.496094 C 298.359375 222.144531 303.253906 216.734375 304.226562 215.464844 L 310.789062 207.949219 C 310.976562 207.730469 311.109375 207.640625 311.296875 207.433594 C 311.507812 207.191406 311.488281 207.164062 311.6875 206.925781 L 314.816406 203.402344 C 315.195312 203.023438 315.324219 202.769531 315.714844 202.378906 C 316.089844 202 316.222656 201.742188 316.609375 201.355469 C 316.976562 200.984375 317.070312 200.757812 317.441406 200.394531 C 318.535156 199.3125 318.15625 197.898438 318.414062 195.605469 L 318.6875 188.328125 C 318.128906 188.480469 317.183594 189.710938 316.824219 190.175781 C 316.265625 190.894531 315.628906 191.472656 315.085938 192.152344 C 314.757812 192.558594 314.566406 192.726562 314.246094 193.105469 C 314.046875 193.339844 314.070312 193.367188 313.855469 193.609375 C 313.667969 193.820312 313.535156 193.90625 313.351562 194.128906 L 308.925781 199.175781 C 307.390625 200.753906 306.050781 202.65625 304.515625 204.234375 L 295.722656 214.257812 C 294.660156 215.632812 293.265625 216.898438 292.175781 218.261719 C 290.753906 220.039062 289.203125 221.585938 287.753906 223.308594 L 282.496094 229.320312 C 282.121094 229.699219 281.988281 229.953125 281.601562 230.34375 L 277.640625 234.828125 C 277.421875 235.089844 277.433594 235.136719 277.1875 235.402344 L 273.21875 239.878906 C 272.992188 240.136719 272.996094 240.199219 272.769531 240.453125 C 272.160156 241.140625 271.59375 241.675781 271.019531 242.417969 C 269.375 244.542969 265.835938 248.195312 263.945312 250.445312 L 253.445312 262.472656 C 252.035156 263.917969 250.847656 265.480469 249.476562 266.949219 C 249.230469 267.210938 249.242188 267.261719 249.023438 267.519531 L 246.390625 270.519531 C 245.84375 271.203125 245.09375 271.875 244.582031 272.550781 C 243.519531 273.9375 242.113281 275.199219 241.050781 276.570312 C 239.941406 278.007812 238.703125 279.238281 237.511719 280.582031 L 236.675781 281.539062 C 235.132812 283.1875 233.839844 284.972656 232.257812 286.59375 L 223.421875 296.703125 C 223.105469 297.082031 222.910156 297.246094 222.585938 297.65625 L 219.898438 300.726562 C 217.695312 303.476562 215.015625 306.007812 212.820312 308.753906 C 212.25 309.464844 211.699219 310.050781 211.078125 310.722656 L 208.453125 313.730469 C 207.640625 314.5625 206.453125 315.859375 205.796875 316.835938 Z M 205.796875 316.835938 " fill-opacity="1" fill-rule="evenodd"/></g><path fill="#16a34a" d="M 146.28125 63.792969 L 146.320312 63.753906 C 146.316406 63.757812 146.269531 63.78125 146.28125 63.792969 Z M 60.015625 162.21875 C 60.238281 162.070312 61.113281 161.042969 61.347656 160.738281 C 61.605469 160.40625 61.761719 160.300781 62.03125 160.011719 C 62.335938 159.683594 62.398438 159.515625 62.734375 159.179688 C 63.691406 158.214844 64.464844 157.070312 65.421875 156.105469 L 74.824219 145.414062 C 75.105469 145.078125 75.136719 144.976562 75.46875 144.652344 C 76.667969 143.46875 77.78125 142.042969 78.867188 140.753906 C 79.121094 140.453125 79.285156 140.355469 79.542969 140.023438 C 79.835938 139.640625 79.898438 139.605469 80.207031 139.277344 C 80.496094 138.964844 80.535156 138.824219 80.84375 138.507812 C 82.507812 136.796875 83.898438 134.828125 85.582031 133.132812 C 86.535156 132.171875 87.296875 131.011719 88.269531 130.058594 L 90.316406 127.757812 C 91.46875 126.53125 92.46875 125.121094 93.644531 123.914062 L 104.464844 111.570312 C 104.917969 111.035156 105.398438 110.554688 105.867188 110.027344 L 109.855469 105.445312 C 110.113281 105.113281 110.28125 105.015625 110.535156 104.710938 L 115.234375 99.300781 C 116.066406 98.222656 117.105469 97.328125 117.941406 96.25 L 119.304688 94.671875 C 120.265625 93.707031 121.03125 92.554688 121.992188 91.597656 L 132.105469 80.078125 C 134.125 78.046875 137.96875 73.214844 140.167969 70.863281 L 144.265625 66.253906 C 144.5625 65.917969 144.628906 65.769531 144.96875 65.425781 C 145.316406 65.078125 146.175781 64.1875 146.28125 63.792969 C 145.175781 63.882812 141.226562 65.558594 139.972656 66.058594 C 139.234375 66.355469 138.601562 66.585938 137.878906 66.90625 L 132.929688 69.125 C 132.554688 69.300781 132.257812 69.378906 131.9375 69.542969 C 131.328125 69.855469 130.914062 70.476562 130.484375 71.035156 C 130.226562 71.367188 130.070312 71.46875 129.800781 71.757812 L 127.777344 74.085938 C 127.480469 74.464844 127.417969 74.503906 127.113281 74.832031 C 125.335938 76.730469 122.917969 79.695312 121.097656 81.742188 C 120.632812 82.265625 120.148438 82.75 119.695312 83.285156 L 116.363281 87.121094 C 115.25 88.214844 114.007812 89.714844 113.023438 90.945312 L 110.335938 94.019531 C 110.101562 94.308594 109.890625 94.457031 109.644531 94.734375 L 100.878906 104.785156 C 99.910156 105.773438 99.101562 106.9375 98.125 107.917969 L 94.097656 112.46875 C 92.179688 114.746094 87.960938 119.289062 86.691406 120.929688 L 83.339844 124.746094 C 82.164062 125.921875 81.121094 127.339844 80.011719 128.585938 L 77.898438 130.957031 C 77.589844 131.273438 77.554688 131.414062 77.261719 131.726562 L 65.101562 145.546875 C 64.675781 145.984375 64.078125 146.578125 63.867188 147.128906 C 63.726562 147.492188 63.59375 147.945312 63.484375 148.28125 C 62.839844 150.316406 60.015625 160.183594 60.015625 162.21875 Z M 60.015625 162.21875 " fill-opacity="1" fill-rule="evenodd"/><path fill="#16a34a" d="M 229.734375 311.203125 C 231.152344 310.875 232.648438 310.246094 233.992188 309.703125 L 242.113281 306.304688 C 242.859375 305.980469 243.320312 305.75 244.027344 305.402344 C 245.039062 304.910156 246.140625 303.386719 246.863281 302.480469 L 250.242188 298.691406 C 250.539062 298.355469 250.605469 298.203125 250.949219 297.859375 L 258.371094 289.414062 C 259.546875 288.160156 260.550781 286.726562 261.761719 285.507812 C 262.089844 285.179688 262.125 285.085938 262.410156 284.746094 L 264.449219 282.4375 C 264.757812 282.109375 264.820312 282.070312 265.113281 281.691406 C 265.949219 280.609375 266.964844 279.699219 267.800781 278.621094 L 274.496094 270.980469 C 276.179688 269.25 277.617188 267.273438 279.300781 265.542969 L 280.65625 263.953125 C 282.273438 261.933594 284.503906 259.851562 286.050781 257.832031 L 290.050781 253.253906 C 290.375 252.925781 290.410156 252.832031 290.695312 252.492188 L 294.789062 247.878906 C 295.726562 246.914062 296.53125 245.777344 297.476562 244.808594 L 305.601562 235.527344 C 305.925781 235.191406 305.972656 235.125 306.253906 234.773438 L 308.289062 232.453125 C 308.628906 232.101562 308.691406 231.992188 309 231.628906 C 309.449219 231.09375 309.933594 230.609375 310.398438 230.085938 C 310.679688 229.773438 310.722656 229.640625 311.039062 229.320312 C 311.363281 228.996094 311.40625 228.890625 311.6875 228.558594 C 312.269531 227.878906 312.359375 227.457031 312.625 226.554688 C 313.070312 225.046875 313.554688 223.632812 313.953125 222.121094 C 314.355469 220.605469 314.789062 219.101562 315.113281 217.523438 C 315.417969 216.046875 316.09375 214.191406 316.128906 212.648438 L 308.03125 221.832031 C 307.722656 222.148438 307.683594 222.289062 307.394531 222.601562 L 304.707031 225.671875 C 304.4375 225.960938 304.28125 226.066406 304.023438 226.398438 L 294.53125 237.257812 C 293.125 238.699219 291.832031 240.289062 290.5 241.800781 L 276.414062 257.921875 C 275.285156 259.257812 274.015625 260.484375 272.941406 261.871094 L 271.621094 263.367188 C 271.285156 263.695312 271.242188 263.773438 270.964844 264.121094 L 264.191406 271.8125 C 262.457031 273.546875 258.039062 279.074219 256.132812 281.03125 L 245.953125 292.609375 C 245.007812 293.585938 244.226562 294.722656 243.269531 295.683594 L 235.140625 304.964844 C 234.816406 305.296875 234.769531 305.367188 234.488281 305.71875 C 234.253906 306.007812 234.042969 306.160156 233.808594 306.449219 L 231.800781 308.789062 C 231.140625 309.617188 230.324219 310.320312 229.734375 311.203125 Z M 229.734375 311.203125 " fill-opacity="1" fill-rule="evenodd"/><path fill="#16a34a" d="M 111.722656 81.582031 L 111.761719 81.546875 C 111.757812 81.546875 111.710938 81.570312 111.722656 81.582031 Z M 73.195312 125.484375 C 73.667969 125.167969 75.101562 123.40625 75.664062 122.832031 L 108.742188 85.128906 C 109.335938 84.421875 111.417969 82.15625 111.722656 81.582031 C 111.269531 81.703125 107.753906 84.441406 107.28125 84.824219 C 104.679688 86.941406 102.054688 89.066406 99.59375 91.339844 L 90.0625 101.136719 C 88.492188 102.8125 86.867188 104.902344 85.394531 106.710938 C 85.183594 106.96875 85.03125 107.199219 84.847656 107.441406 L 80.984375 112.667969 C 79.074219 115.238281 76.75 119.191406 75.011719 122.050781 C 74.644531 122.660156 73.324219 124.941406 73.195312 125.484375 Z M 73.070312 125.484375 C 72.933594 125.621094 73.273438 125.96875 73.136719 125.628906 C 73.132812 125.625 73.285156 125.269531 73.070312 125.484375 Z M 73.070312 125.484375 " fill-opacity="1" fill-rule="evenodd"/><path fill="#16a34a" d="M 264.929688 293.027344 C 265.382812 292.726562 265.902344 292.332031 266.339844 292.003906 C 266.835938 291.628906 267.257812 291.28125 267.785156 290.890625 C 270.496094 288.863281 273.503906 286.253906 276.097656 283.972656 L 283.074219 277.125 C 284.855469 275.203125 287.949219 271.714844 289.5625 269.660156 L 297.03125 259.46875 C 297.742188 258.40625 302.445312 250.949219 302.6875 249.894531 C 302.199219 250.222656 298.25 254.980469 297.410156 255.878906 C 297.140625 256.167969 297.039062 256.242188 296.800781 256.550781 L 287.363281 267.335938 C 287.066406 267.640625 287.039062 267.660156 286.765625 268.015625 L 284.351562 270.722656 C 284.058594 271.023438 284.039062 271.132812 283.777344 271.429688 L 265.476562 292.292969 C 265.164062 292.605469 265.046875 292.589844 264.929688 293.027344 Z M 264.929688 293.027344 " fill-opacity="1" fill-rule="evenodd"/><g clip-path="url(#5c366c6657)"><path fill="#ffffff" d="M 172.191406 172.71875 L 146.566406 172.71875 L 146.566406 152.242188 L 172.191406 152.242188 C 180.671875 152.242188 187.558594 145.355469 187.558594 136.875 C 187.558594 128.398438 180.671875 121.507812 172.191406 121.507812 L 146.566406 121.507812 L 146.566406 100.992188 L 172.191406 100.992188 C 191.949219 100.992188 208.035156 117.078125 208.035156 136.835938 C 208.035156 156.59375 191.949219 172.71875 172.191406 172.71875 Z M 172.191406 172.71875 " fill-opacity="1" fill-rule="nonzero"/></g><g clip-path="url(#ed0eb60d63)"><path fill="#ffffff" d="M 259.285156 213.671875 C 259.285156 247.550781 231.691406 275.140625 197.816406 275.140625 L 116.855469 275.140625 L 116.855469 211.289062 L 137.332031 211.289062 L 137.332031 254.664062 L 197.777344 254.664062 C 220.375 254.664062 238.769531 236.269531 238.769531 213.671875 C 238.769531 191.078125 220.375 172.679688 197.777344 172.679688 L 187.332031 172.679688 C 196.300781 168.898438 203.570312 161.820312 207.621094 152.960938 C 236.878906 157.730469 259.285156 183.128906 259.285156 213.671875 Z M 259.285156 213.671875 " fill-opacity="1" fill-rule="nonzero"/></g><g clip-path="url(#c1dc924f7d)"><path fill="#ffffff" d="M 137.371094 111.25 C 137.371094 111.925781 137.304688 112.589844 137.171875 113.253906 C 137.042969 113.914062 136.847656 114.554688 136.589844 115.175781 C 136.332031 115.796875 136.015625 116.390625 135.640625 116.949219 C 135.265625 117.507812 134.84375 118.027344 134.367188 118.503906 C 133.890625 118.980469 133.371094 119.40625 132.8125 119.78125 C 132.25 120.152344 131.660156 120.46875 131.039062 120.726562 C 130.414062 120.984375 129.773438 121.179688 129.113281 121.3125 C 128.453125 121.441406 127.785156 121.507812 127.113281 121.507812 C 126.4375 121.507812 125.773438 121.441406 125.113281 121.3125 C 124.449219 121.179688 123.808594 120.984375 123.1875 120.726562 C 122.566406 120.46875 121.972656 120.152344 121.414062 119.78125 C 120.855469 119.40625 120.335938 118.980469 119.859375 118.503906 C 119.382812 118.027344 118.957031 117.507812 118.582031 116.949219 C 118.210938 116.390625 117.894531 115.796875 117.636719 115.175781 C 117.378906 114.554688 117.183594 113.914062 117.050781 113.253906 C 116.921875 112.589844 116.855469 111.925781 116.855469 111.25 C 116.855469 110.578125 116.921875 109.910156 117.050781 109.25 C 117.183594 108.589844 117.378906 107.949219 117.636719 107.324219 C 117.894531 106.703125 118.210938 106.113281 118.582031 105.550781 C 118.957031 104.992188 119.382812 104.472656 119.859375 103.996094 C 120.335938 103.523438 120.855469 103.097656 121.414062 102.722656 C 121.972656 102.347656 122.566406 102.03125 123.1875 101.773438 C 123.808594 101.515625 124.449219 101.320312 125.113281 101.191406 C 125.773438 101.058594 126.4375 100.992188 127.113281 100.992188 C 127.785156 100.992188 128.453125 101.058594 129.113281 101.191406 C 129.773438 101.320312 130.414062 101.515625 131.039062 101.773438 C 131.660156 102.03125 132.25 102.347656 132.8125 102.722656 C 133.371094 103.097656 133.890625 103.523438 134.367188 103.996094 C 134.84375 104.472656 135.265625 104.992188 135.640625 105.550781 C 136.015625 106.113281 136.332031 106.703125 136.589844 107.324219 C 136.847656 107.949219 137.042969 108.589844 137.171875 109.25 C 137.304688 109.910156 137.371094 110.578125 137.371094 111.25 Z M 137.371094 111.25 " fill-opacity="1" fill-rule="nonzero"/></g></svg>